<?xml version="1.0" encoding="UTF-8"?>
<svg version="1.1" xmlns="http://www.w3.org/2000/svg" width="1536" height="1024">
<path d="M0 0 C506.88 0 1013.76 0 1536 0 C1536 337.92 1536 675.84 1536 1024 C1029.12 1024 522.24 1024 0 1024 C0 686.08 0 348.16 0 0 Z " fill="#FEFEFE" transform="translate(0,0)"/>
<path d="M0 0 C1.01468353 -0.0071553 2.02936707 -0.01431061 3.07479858 -0.02168274 C4.18235504 -0.02437164 5.2899115 -0.02706055 6.43103027 -0.02983093 C8.18789658 -0.03968773 8.18789658 -0.03968773 9.98025513 -0.04974365 C13.8616267 -0.06947422 17.7429847 -0.0811465 21.62438965 -0.09111023 C22.9651237 -0.09516042 24.30585755 -0.09927742 25.64659119 -0.10346031 C31.9513144 -0.12250749 38.25602598 -0.13673567 44.56077242 -0.14507228 C51.81329558 -0.15482267 59.06551175 -0.18108614 66.31792688 -0.22157317 C71.93853322 -0.2518615 77.55905224 -0.26655339 83.17973852 -0.26985329 C86.52928083 -0.27219072 89.87823607 -0.28298936 93.22773743 -0.30631447 C96.97543407 -0.33078413 100.72233993 -0.32972564 104.47009277 -0.32279968 C105.56145538 -0.33560974 106.65281799 -0.3484198 107.7772522 -0.36161804 C121.45690278 -0.27003962 131.77660092 4.66332462 141.7767334 13.79951477 C149.85245926 22.3786625 154.28720338 34.35746593 154.23556519 46.00071716 C154.2400963 46.76115007 154.24462741 47.52158298 154.24929583 48.30505931 C154.26189275 50.83729094 154.26032251 53.36930618 154.25866699 55.90156555 C154.26465533 57.72384923 154.27146158 59.54613037 154.27902222 61.3684082 C154.29666187 66.30880526 154.30137684 71.249133 154.30265379 76.18955851 C154.30407751 79.28076169 154.30835137 82.37194738 154.31364822 85.46314621 C154.3321443 96.26082727 154.34031968 107.05845902 154.33874512 117.8561554 C154.33754499 127.89846295 154.3586231 137.94055514 154.39023244 147.98280823 C154.41644906 156.62173248 154.4271101 165.26058663 154.4258343 173.89955032 C154.42532609 179.05144379 154.43093029 184.20314593 154.4521904 189.35499954 C154.47166274 194.20603743 154.47163611 199.05670331 154.45715714 203.9077549 C154.45507881 205.67934403 154.45971113 207.450957 154.47187805 209.22250557 C154.57826754 225.79875928 151.80738009 238.95783778 140.15563965 251.39717102 C132.31734369 258.90700505 121.06595005 264.24910503 110.11264038 264.28761292 C109.1371373 264.29332306 108.16163422 264.2990332 107.15657043 264.30491638 C105.56065315 264.30659317 105.56065315 264.30659317 103.93249512 264.30830383 C102.80680618 264.31326874 101.68111725 264.31823364 100.52131653 264.323349 C96.7926472 264.33796769 93.06402045 264.34477302 89.33532715 264.35029602 C86.74183145 264.35604876 84.14833576 264.36180648 81.55484009 264.36756897 C76.80809204 264.37673561 72.06136097 264.38303553 67.31460559 264.38606572 C60.34793768 264.39053836 53.38146675 264.40805096 46.4148587 264.43706632 C40.36537712 264.46137917 34.31598794 264.46901456 28.26645279 264.47074127 C25.70132502 264.47376134 23.13619794 264.48176796 20.57110214 264.49492645 C16.97396869 264.51205827 13.37730952 264.51008871 9.78015137 264.50361633 C8.7283519 264.51283112 7.67655243 264.5220459 6.59288025 264.53153992 C-6.11463141 264.46022945 -17.99544888 260.21185898 -27.34436035 251.39717102 C-39.01796953 238.83847262 -40.48180528 225.87252948 -40.45178223 209.50727844 C-40.45912933 207.61411032 -40.46771742 205.72094668 -40.47744751 203.82778931 C-40.49960557 198.7036731 -40.50259702 193.57971798 -40.5007 188.45556045 C-40.50058002 184.16903432 -40.50915521 179.88254198 -40.51747751 175.59602529 C-40.53669136 165.47787826 -40.53960288 155.35981372 -40.53283691 145.24165344 C-40.52619872 134.82432758 -40.54905637 124.40735602 -40.58615065 113.99010199 C-40.61689983 105.02757841 -40.62820198 96.06516849 -40.62431383 87.10259324 C-40.6222516 81.75790463 -40.62764413 76.41349176 -40.65220642 71.06885338 C-40.67455706 66.03961297 -40.67252671 61.01094642 -40.6522789 55.9817028 C-40.64888346 54.14357808 -40.65389423 52.30541408 -40.66826248 50.46734238 C-40.78386665 34.57282441 -37.63015423 23.31425268 -26.4498291 11.47138977 C-19.37857918 4.81305955 -9.7584086 0.0473677 0 0 Z " fill="#5D7CFE" transform="translate(253.0318603515625,360.8528289794922)"/>
<path d="M0 0 C1.4353872 -0.01648013 2.87069506 -0.04366485 4.30566406 -0.08203125 C18.61086861 -0.46213719 18.61086861 -0.46213719 24.55908203 3.78125 C29.82144853 9.34125775 29.49850958 14.59703152 29.52050781 21.92431641 C29.53608734 23.04449661 29.55166687 24.16467682 29.56771851 25.31880188 C29.61520038 28.89172695 29.64299553 32.4644568 29.66894531 36.03759766 C29.70541346 39.6213132 29.74599334 43.20491755 29.79159546 46.78852844 C29.81885998 49.01761881 29.84019468 51.24679087 29.85513306 53.47599792 C29.8653952 54.48076675 29.87565735 55.48553558 29.88623047 56.52075195 C29.89272614 57.40723923 29.8992218 58.2937265 29.90591431 59.20707703 C29.90783739 61.40188038 29.90783739 61.40188038 31.04394531 63.35009766 C31.66733292 63.35374329 32.29072052 63.35738892 32.93299866 63.36114502 C39.43869918 63.4030516 45.94369958 63.47245467 52.44897461 63.55761719 C54.87468453 63.58579111 57.30048564 63.60702336 59.72631836 63.62109375 C63.21938647 63.64257193 66.71136222 63.68925028 70.20410156 63.74072266 C71.28353531 63.74195129 72.36296906 63.74317993 73.47511292 63.7444458 C79.85881568 63.86779142 83.94048727 64.38787036 89.04394531 68.35009766 C92.94280376 72.80995148 93.64056652 76.59250846 93.57519531 82.34619141 C93.57902222 83.09796158 93.58284912 83.84973175 93.58679199 84.62428284 C93.58950154 86.20681098 93.58220754 87.78938465 93.56542969 89.37182617 C93.54403314 91.77772219 93.56524497 94.18062258 93.59082031 96.58642578 C93.58817628 98.13135417 93.58304972 99.67628072 93.57519531 101.22119141 C93.58329224 101.93182236 93.59138916 102.64245331 93.59973145 103.37461853 C93.50282836 108.60711439 92.38328662 112.37547723 89.04394531 116.35009766 C83.13338502 121.0616709 77.56586286 120.95109332 70.20410156 120.95947266 C68.52096107 120.98427704 68.52096107 120.98427704 66.80381775 121.00958252 C63.23797072 121.05796794 59.67254992 121.07941343 56.10644531 121.10009766 C53.68129377 121.12826509 51.256162 121.15819359 48.83105469 121.18994141 C42.90209536 121.26372452 36.97325544 121.31542249 31.04394531 121.35009766 C31.03514595 122.24759483 31.03514595 122.24759483 31.02616882 123.16322327 C30.96207064 129.40933369 30.87760881 135.6549367 30.78149414 141.90063477 C30.74830783 144.22934261 30.72025643 146.55812967 30.69750977 148.88696289 C30.66384862 152.24090222 30.61152532 155.59411972 30.55566406 158.94775391 C30.54927414 159.98344009 30.54288422 161.01912628 30.53630066 162.0861969 C30.38715928 169.47379823 29.52817221 174.49323672 24.54394531 180.22509766 C19.17481636 184.78885726 12.16452034 183.6092648 5.4753418 183.64526367 C3.98468531 183.65677892 2.4940699 183.67722395 1.00366211 183.70678711 C-1.15637064 183.74961926 -3.31518039 183.76565293 -5.47558594 183.77587891 C-6.7656958 183.79046143 -8.05580566 183.80504395 -9.38500977 183.82006836 C-14.58505729 183.13571125 -18.62256256 180.3853776 -21.95605469 176.35009766 C-22.93764767 173.4053187 -23.10255091 171.41713703 -23.14550781 168.34375 C-23.16222534 167.32614594 -23.17894287 166.30854187 -23.19616699 165.26010132 C-23.20974243 164.16315948 -23.22331787 163.06621765 -23.23730469 161.93603516 C-23.25571411 160.81065338 -23.27412354 159.68527161 -23.29309082 158.52578735 C-23.37191523 153.70072088 -23.43969878 148.87551394 -23.50830078 144.05029297 C-23.55987309 140.53296671 -23.61717048 137.01576643 -23.67480469 133.49853516 C-23.68838013 132.39754486 -23.70195557 131.29655457 -23.71594238 130.16220093 C-23.73265991 129.15090118 -23.74937744 128.13960144 -23.76660156 127.09765625 C-23.77912964 126.20291595 -23.79165771 125.30817566 -23.80456543 124.38632202 C-23.73290739 122.35567954 -23.73290739 122.35567954 -24.95605469 121.35009766 C-26.55074875 121.24815694 -28.14986557 121.21440605 -29.74780273 121.20825195 C-30.76944016 121.2012175 -31.79107758 121.19418304 -32.84367371 121.18693542 C-34.51385307 121.18068901 -34.51385307 121.18068901 -36.21777344 121.17431641 C-38.55697508 121.15111154 -40.89616781 121.12699394 -43.23535156 121.10205078 C-46.93747857 121.06696069 -50.63927985 121.03761318 -54.34155273 121.02416992 C-57.90486579 121.00868451 -61.46721515 120.9684586 -65.03027344 120.92431641 C-66.13360519 120.92622482 -67.23693695 120.92813324 -68.373703 120.93009949 C-74.54749676 120.83195816 -78.2669088 120.49431583 -82.95605469 116.35009766 C-89.13372742 109.67153254 -88.23504598 102.46783233 -88.30615234 93.81591797 C-88.32267524 92.34570445 -88.34991756 90.87557005 -88.38818359 89.40576172 C-88.76736615 74.73304544 -88.76736615 74.73304544 -84.52490234 68.82177734 C-80.82062684 65.34692942 -77.57558912 63.97801573 -72.52319336 63.91772461 C-71.46247116 63.89793045 -70.40174896 63.87813629 -69.30888367 63.85774231 C-68.17537979 63.85135239 -67.04187592 63.84496246 -65.87402344 63.83837891 C-64.70470779 63.8204277 -63.53539215 63.8024765 -62.3306427 63.78398132 C-58.60164987 63.72986708 -54.87278514 63.69597798 -51.14355469 63.66259766 C-48.6129379 63.62942569 -46.08233802 63.59493615 -43.55175781 63.55908203 C-37.35330497 63.47413976 -31.15483558 63.40579437 -24.95605469 63.35009766 C-24.95240906 62.71196136 -24.94876343 62.07382507 -24.94500732 61.41635132 C-24.90314455 54.76482944 -24.83377193 48.11399514 -24.74853516 41.46289062 C-24.72033773 38.98184084 -24.69911714 36.50070143 -24.68505859 34.01953125 C-24.66361307 30.44956618 -24.61695127 26.88067738 -24.56542969 23.31103516 C-24.56420105 22.20456635 -24.56297241 21.09809753 -24.56170654 19.95809937 C-24.44475807 13.78629011 -24.10908187 10.03250703 -19.95605469 5.35009766 C-13.53133509 -0.30977437 -8.21702732 0.06900363 0 0 Z " fill="#FDFDFE" transform="translate(306.9560546875,400.64990234375)"/>
<path d="M0 0 C1.12019531 -0.00128906 2.24039063 -0.00257813 3.39453125 -0.00390625 C4.57402344 -0.00003906 5.75351562 0.00382812 6.96875 0.0078125 C8.73798828 0.00201172 8.73798828 0.00201172 10.54296875 -0.00390625 C12.22326172 -0.00197266 12.22326172 -0.00197266 13.9375 0 C14.97326172 0.00112793 16.00902344 0.00225586 17.07617188 0.00341797 C19.46875 0.1328125 19.46875 0.1328125 20.46875 1.1328125 C20.56719922 2.86409348 20.59507053 4.59941835 20.59573364 6.33349609 C20.59996338 8.02463531 20.59996338 8.02463531 20.60427856 9.74993896 C20.60124222 11.62168793 20.60124222 11.62168793 20.59814453 13.53125 C20.60077301 15.48952728 20.60077301 15.48952728 20.60345459 17.48736572 C20.60802861 21.07817759 20.60623949 24.66896086 20.6030755 28.25977325 C20.60055174 32.00960876 20.60288949 35.75944175 20.60446167 39.50927734 C20.60628332 45.80762168 20.60387718 52.10595431 20.59912109 58.40429688 C20.59367848 65.69620133 20.59544114 72.98807783 20.6009475 80.27998161 C20.60547876 86.52964963 20.60612911 92.77930922 20.60350883 99.02897835 C20.60194613 102.76645491 20.6017521 106.50391831 20.60504532 110.24139404 C20.60845806 114.405738 20.60373408 118.57003341 20.59814453 122.734375 C20.60016876 123.98220764 20.60219299 125.23004028 20.60427856 126.51568604 C20.60145874 127.64311218 20.59863892 128.77053833 20.59573364 129.93212891 C20.5951681 131.41104111 20.5951681 131.41104111 20.59459114 132.91983032 C20.46875 135.1328125 20.46875 135.1328125 19.46875 136.1328125 C17.77316274 136.23213403 16.07349253 136.26361257 14.375 136.265625 C13.34503906 136.26691406 12.31507813 136.26820313 11.25390625 136.26953125 C9.62775391 136.26373047 9.62775391 136.26373047 7.96875 136.2578125 C6.88464844 136.26167969 5.80054688 136.26554688 4.68359375 136.26953125 C3.65363281 136.26824219 2.62367188 136.26695312 1.5625 136.265625 C0.61052734 136.26449707 -0.34144531 136.26336914 -1.32226562 136.26220703 C-3.53125 136.1328125 -3.53125 136.1328125 -4.53125 135.1328125 C-4.76317865 133.61811802 -4.94340238 132.09526688 -5.09375 130.5703125 C-5.17753906 129.74402344 -5.26132812 128.91773438 -5.34765625 128.06640625 C-5.40824219 127.42832031 -5.46882812 126.79023437 -5.53125 126.1328125 C-5.94375 126.59171875 -6.35625 127.050625 -6.78125 127.5234375 C-12.99592331 134.12652789 -19.34047851 137.81899975 -28.47265625 138.37109375 C-42.9192626 138.71875192 -53.57878218 135.93586764 -64.69140625 126.25 C-74.886439 116.53137065 -79.58017453 105.37694767 -79.95532227 91.33227539 C-80.03692789 74.54673999 -76.49551995 60.68343636 -64.734375 48.13671875 C-56.24598743 40.41589814 -46.44528519 36.59289916 -35.09375 36.7578125 C-33.90168945 36.74041016 -33.90168945 36.74041016 -32.68554688 36.72265625 C-23.66328764 36.76670308 -15.44733522 39.33212834 -8.8671875 45.7578125 C-8.42632813 46.2115625 -7.98546875 46.6653125 -7.53125 47.1328125 C-7.52094254 46.55874161 -7.51063507 45.98467072 -7.50001526 45.39320374 C-7.39217566 39.44015588 -7.27756023 33.48726635 -7.15893555 27.53442383 C-7.11551412 25.31017354 -7.07384455 23.08588835 -7.03393555 20.86157227 C-6.97640694 17.67193055 -6.91266316 14.4824657 -6.84765625 11.29296875 C-6.83094376 10.29193619 -6.81423126 9.29090363 -6.79701233 8.25953674 C-6.77706711 7.33865768 -6.75712189 6.41777863 -6.73657227 5.46899414 C-6.72102798 4.65402969 -6.7054837 3.83906525 -6.68946838 2.99940491 C-6.34916249 -1.01537764 -3.38177969 0.00368271 0 0 Z " fill="#061467" transform="translate(853.53125,416.8671875)"/>
<path d="M0 0 C3.19836699 2.412641 5.84399258 4.59577775 8 8 C8 8.66 8 9.32 8 10 C8.680625 9.29875 9.36125 8.5975 10.0625 7.875 C11.03809486 6.91303077 12.01757704 5.95499491 13 5 C13.50789062 4.49597656 14.01578125 3.99195313 14.5390625 3.47265625 C22.39644044 -3.8447597 30.00147813 -5.35113022 40.5 -5.4375 C41.3780127 -5.44765137 42.25602539 -5.45780273 43.16064453 -5.46826172 C54.24755294 -5.3215931 63.65127716 -2.02350986 71.75390625 5.6640625 C81.64490611 16.52185182 82.30785203 28.97570394 82.23046875 43.0625 C82.22927454 44.50455687 82.2288243 45.94661453 82.2290802 47.38867188 C82.22752568 50.39083823 82.21930933 53.39288358 82.20581055 56.39501953 C82.18869903 60.24982393 82.18500024 64.10449738 82.18575573 67.95933533 C82.18548464 70.92748268 82.18001535 73.89560121 82.17275429 76.86373901 C82.1695674 78.28636457 82.16760016 79.70899338 82.16686058 81.13162231 C82.1647042 83.10859347 82.15517752 85.08555252 82.14526367 87.0625 C82.14145187 88.18785156 82.13764008 89.31320312 82.13371277 90.47265625 C82 93 82 93 81 94 C79.30441274 94.09932153 77.60474253 94.13080007 75.90625 94.1328125 C74.87628906 94.13410156 73.84632813 94.13539063 72.78515625 94.13671875 C71.15900391 94.13091797 71.15900391 94.13091797 69.5 94.125 C68.41589844 94.12886719 67.33179688 94.13273438 66.21484375 94.13671875 C65.18488281 94.13542969 64.15492188 94.13414062 63.09375 94.1328125 C62.14177734 94.13168457 61.18980469 94.13055664 60.20898438 94.12939453 C58 94 58 94 57 93 C56.89236244 91.19629154 56.85373808 89.38842395 56.84228516 87.58154297 C56.83202301 86.42298798 56.82176086 85.26443298 56.81118774 84.07077026 C56.80388641 82.80733795 56.79658508 81.54390564 56.7890625 80.2421875 C56.76817971 78.26860245 56.74727943 76.2950174 56.72536278 74.32144356 C56.67216951 69.44125456 56.6281091 64.56105467 56.59863281 59.68066406 C56.58168848 56.94892338 56.55694432 54.21746213 56.52377319 51.48587036 C56.49285883 48.91166523 56.47339773 46.33729099 56.46670532 43.76290894 C56.35455565 35.79182838 55.92804109 30.37850894 50.5625 24.1875 C45.10603353 19.52954082 40.55660273 19.51094175 33.4921875 19.62109375 C28.61705803 20.15005075 25.51147565 21.61235473 22 25 C17.8011658 30.27545835 16.89174177 34.16174365 16.81054688 40.76245117 C16.79382935 41.92012497 16.77711182 43.07779877 16.7598877 44.27055359 C16.74631226 45.51545059 16.73273682 46.7603476 16.71875 48.04296875 C16.69063007 49.99712691 16.66250484 51.95128502 16.63405609 53.90543842 C16.57553162 58.02952214 16.52535624 62.15371577 16.47393799 66.27789307 C16.41503838 70.97050279 16.34892583 75.66297564 16.28125 80.35546875 C16.26767456 81.60643845 16.25409912 82.85740814 16.2401123 84.14628601 C16.22339478 85.29450333 16.20667725 86.44272064 16.18945312 87.62573242 C16.17066101 89.14984993 16.17066101 89.14984993 16.15148926 90.70475769 C16 93 16 93 15 94 C13.30441274 94.09932153 11.60474253 94.13080007 9.90625 94.1328125 C8.87628906 94.13410156 7.84632813 94.13539063 6.78515625 94.13671875 C5.15900391 94.13091797 5.15900391 94.13091797 3.5 94.125 C2.41589844 94.12886719 1.33179688 94.13273438 0.21484375 94.13671875 C-1.33009766 94.13478516 -1.33009766 94.13478516 -2.90625 94.1328125 C-3.85822266 94.13168457 -4.81019531 94.13055664 -5.79101562 94.12939453 C-8 94 -8 94 -9 93 C-9.10743153 91.30409963 -9.14624639 89.60380205 -9.15771484 87.90454102 C-9.16797699 86.81573135 -9.17823914 85.72692169 -9.18881226 84.6051178 C-9.19611359 83.41671799 -9.20341492 82.22831818 -9.2109375 81.00390625 C-9.23902787 78.50064475 -9.26769245 75.99738963 -9.296875 73.49414062 C-9.33799717 69.53784511 -9.37487165 65.58166609 -9.40136719 61.62524414 C-9.42912397 57.81371111 -9.4750228 54.00272563 -9.5234375 50.19140625 C-9.52669037 49.02122452 -9.52994324 47.85104279 -9.53329468 46.645401 C-9.64960304 35.10617444 -9.64960304 35.10617444 -14.67514038 25.06178284 C-20.10252753 20.07525336 -25.12082231 18.49933006 -32.4375 18.6953125 C-37.49145053 19.29623955 -41.36582579 20.94305435 -44.5703125 24.9765625 C-47.59933795 29.73645963 -49.12218871 33.03615135 -49.18945312 38.71899414 C-49.20617065 39.9168605 -49.22288818 41.11472687 -49.2401123 42.34889221 C-49.25368774 43.64785934 -49.26726318 44.94682648 -49.28125 46.28515625 C-49.2992838 47.62512466 -49.3178866 48.96508552 -49.33703613 50.30503845 C-49.40690081 55.28134122 -49.4663409 60.25775891 -49.52606201 65.23419189 C-49.57691993 69.44022458 -49.63171541 73.64616921 -49.69187927 77.85207939 C-49.7185305 79.83135476 -49.73923383 81.81070729 -49.7598877 83.79005432 C-49.77660522 84.98476852 -49.79332275 86.17948273 -49.81054688 87.41040039 C-49.82933899 88.99686119 -49.82933899 88.99686119 -49.84851074 90.6153717 C-50 93 -50 93 -51 94 C-52.76859193 94.09946453 -54.54111451 94.13080217 -56.3125 94.1328125 C-57.38757813 94.13410156 -58.46265625 94.13539063 -59.5703125 94.13671875 C-60.70210938 94.13285156 -61.83390625 94.12898437 -63 94.125 C-64.13179688 94.12886719 -65.26359375 94.13273438 -66.4296875 94.13671875 C-67.50476563 94.13542969 -68.57984375 94.13414062 -69.6875 94.1328125 C-70.68136719 94.13168457 -71.67523438 94.13055664 -72.69921875 94.12939453 C-75 94 -75 94 -76 93 C-76.1006127 90.0223863 -76.13614893 87.06792833 -76.12939453 84.08984375 C-76.13114685 83.15496124 -76.13289917 82.22007874 -76.13470459 81.25686646 C-76.13912474 78.15039238 -76.13618454 75.04397471 -76.1328125 71.9375 C-76.13348549 69.78898101 -76.13445548 67.64046209 -76.13571167 65.49194336 C-76.13718886 60.98257728 -76.13503339 56.47323097 -76.13037109 51.96386719 C-76.1246738 46.16951423 -76.12795269 40.37520758 -76.13394356 34.58085632 C-76.13754859 30.14237109 -76.13641085 25.70389693 -76.13381577 21.26541138 C-76.13314634 19.12826533 -76.13397547 16.99111829 -76.13629532 14.85397339 C-76.1388209 11.87267374 -76.13498259 8.8914502 -76.12939453 5.91015625 C-76.13141876 5.01765167 -76.13344299 4.12514709 -76.13552856 3.20559692 C-76.11426232 -2.88573768 -76.11426232 -2.88573768 -75 -4 C-73.37742456 -4.0991657 -71.75060169 -4.13079777 -70.125 -4.1328125 C-69.14015625 -4.13410156 -68.1553125 -4.13539063 -67.140625 -4.13671875 C-66.10421875 -4.13285156 -65.0678125 -4.12898438 -64 -4.125 C-62.44539063 -4.13080078 -62.44539063 -4.13080078 -60.859375 -4.13671875 C-59.87453125 -4.13542969 -58.8896875 -4.13414062 -57.875 -4.1328125 C-56.96492188 -4.13168457 -56.05484375 -4.13055664 -55.1171875 -4.12939453 C-53 -4 -53 -4 -52 -3 C-51.76712992 -1.31816052 -51.58735834 0.3712416 -51.4375 2.0625 C-51.31181641 3.44115234 -51.31181641 3.44115234 -51.18359375 4.84765625 C-51.12300781 5.55792969 -51.06242188 6.26820313 -51 7 C-50.38125 6.113125 -49.7625 5.22625 -49.125 4.3125 C-38.22265774 -8.87027489 -13.39437594 -8.24937254 0 0 Z " fill="#061367" transform="translate(568,459)"/>
<path d="M0 0 C0.96647461 0.00757324 1.93294922 0.01514648 2.92871094 0.02294922 C16.29269252 0.32962685 28.12992141 4.44023154 38 13.75 C49.28089538 25.88028044 52.77459174 39.40500535 52.52734375 55.5234375 C52.12205335 66.0206604 48.2300488 74.92685121 42.25 83.4375 C41.81042969 84.07300781 41.37085938 84.70851563 40.91796875 85.36328125 C34.04917474 94.29073398 23.17189778 99.58448341 12.25 101.4375 C-5.05009447 103.09252661 -19.15773387 101.14480499 -33.0546875 89.953125 C-41.60625221 81.97166461 -47.96816216 71.11719171 -48.92700195 59.24609375 C-49.400091 40.94075184 -46.95273008 26.98161869 -33.9375 13.125 C-24.17639841 3.92921317 -13.27003839 -0.14600287 0 0 Z " fill="#061366" transform="translate(1087.75,453.5625)"/>
<path d="M0 0 C8.74280107 6.73721418 13.53555036 17.19823354 16.00390625 27.6640625 C16.00390625 34.5940625 16.00390625 41.5240625 16.00390625 48.6640625 C-7.42609375 48.6640625 -30.85609375 48.6640625 -54.99609375 48.6640625 C-51.62976194 60.88618376 -51.62976194 60.88618376 -43.05859375 67.9140625 C-40.02583786 69.29664239 -37.33811689 70.33801146 -33.99609375 70.6640625 C-33.3515625 70.72722656 -32.70703125 70.79039062 -32.04296875 70.85546875 C-25.75914302 71.19602574 -20.44528248 69.83896545 -14.99609375 66.6640625 C-13.10819243 64.79815867 -13.10819243 64.79815867 -11.43359375 62.7890625 C-8.60227133 59.70694696 -8.60227133 59.70694696 -5.953125 59.51953125 C-3.5150179 60.02441361 -1.32355199 60.77845732 1.00390625 61.6640625 C1.98875 61.97601562 2.97359375 62.28796875 3.98828125 62.609375 C9.58785098 64.45172048 9.58785098 64.45172048 12.00390625 65.6640625 C12.33390625 66.6540625 12.66390625 67.6440625 13.00390625 68.6640625 C11.4106179 71.6193554 9.16575439 74.10571819 7.00390625 76.6640625 C6.49601562 77.28023437 5.988125 77.89640625 5.46484375 78.53125 C-1.16463464 85.87919403 -11.55202381 90.99135136 -21.41943359 91.88305664 C-39.18880718 92.66695146 -51.56481744 89.73319872 -66.18359375 79.4140625 C-75.9576918 69.85716663 -80.99146702 57.68514817 -81.48583984 44.08837891 C-81.55934104 28.50262441 -77.24047632 15.35442894 -66.4453125 3.98828125 C-47.22677132 -14.24940934 -21.49414975 -14.38551705 0 0 Z " fill="#061366" transform="translate(1319.99609375,463.3359375)"/>
<path d="M0 0 C7.83468622 7.32820145 12.37982969 16.5604779 14.8125 26.875 C14.8125 33.805 14.8125 40.735 14.8125 47.875 C-8.6175 47.875 -32.0475 47.875 -56.1875 47.875 C-52.96239159 59.41438498 -52.96239159 59.41438498 -44.875 67.3125 C-37.74726227 70.46228125 -26.99111692 70.11891626 -19.625 67.8125 C-15.9248008 65.72693318 -13.65754085 63.49241142 -11.0234375 60.203125 C-9.1875 58.875 -9.1875 58.875 -6.43359375 59.0234375 C-2.85217909 59.96296626 0.62801161 61.03140848 4.125 62.25 C5.35863281 62.67023438 6.59226562 63.09046875 7.86328125 63.5234375 C8.83652344 63.96945312 9.80976562 64.41546875 10.8125 64.875 C11.1425 65.865 11.4725 66.855 11.8125 67.875 C10.21921165 70.8302929 7.97434814 73.31665569 5.8125 75.875 C5.30460938 76.49117187 4.79671875 77.10734375 4.2734375 77.7421875 C-2.29448711 85.0219069 -12.6487518 90.19582613 -22.43945312 91.07788086 C-24.94285077 91.17915835 -27.43212838 91.20384865 -29.9375 91.1875 C-31.2675708 91.18012817 -31.2675708 91.18012817 -32.62451172 91.17260742 C-39.19805034 91.05515827 -45.05203798 90.37163776 -51.1875 87.875 C-52.02152344 87.54628906 -52.85554687 87.21757813 -53.71484375 86.87890625 C-64.78807628 81.94799069 -73.63019996 73.17917952 -78.40234375 62.0390625 C-84.26294623 46.48031002 -83.72771849 31.0859627 -77.1875 15.875 C-75.17734373 12.20109788 -72.91032641 9.04972406 -70.1875 5.875 C-69.61515625 5.16988281 -69.0428125 4.46476562 -68.453125 3.73828125 C-51.15667951 -15.6647826 -19.65694104 -15.71051884 0 0 Z " fill="#061366" transform="translate(747.1875,464.125)"/>
<path d="M0 0 C6.45897081 4.63176196 10.86045028 10.78751226 13.25 18.390625 C13.25 19.380625 13.25 20.370625 13.25 21.390625 C5.9302723 23.25157272 -1.21783285 23.94824115 -8.75 24.390625 C-9.61625 22.9984375 -9.61625 22.9984375 -10.5 21.578125 C-13.45521653 17.39156825 -15.75184718 15.37287068 -20.75 14.390625 C-22.72587236 14.24929713 -24.70680649 14.17059766 -26.6875 14.140625 C-27.70714844 14.11484375 -28.72679687 14.0890625 -29.77734375 14.0625 C-33.20647764 14.44101149 -35.03191527 15.28786426 -37.75 17.390625 C-39.08660145 20.74655363 -39.08660145 20.74655363 -38.75 24.390625 C-34.93251308 30.70416106 -27.50553913 31.69133641 -20.75 33.390625 C-19.33712991 33.7046329 -17.9230096 34.01305821 -16.5078125 34.31640625 C-5.38730228 36.70771346 5.65432754 39.29100155 12.25 49.390625 C16.38081333 56.37027511 16.50957318 64.44713885 14.5234375 72.2421875 C11.04481012 81.60337176 5.22788289 87.20094632 -3.75 91.390625 C-10.73750574 94.04265121 -17.17924598 94.91045629 -24.625 94.828125 C-26.07072388 94.81676514 -26.07072388 94.81676514 -27.5456543 94.80517578 C-39.72762366 94.52376109 -49.85926818 90.98584785 -58.75390625 82.47265625 C-63.53777852 77.30927011 -66.75 72.63581684 -66.75 65.390625 C-59.11399015 63.61520962 -51.5687104 62.85631622 -43.75 62.390625 C-43.50507812 62.92171875 -43.26015625 63.4528125 -43.0078125 64 C-40.12163986 69.45387105 -37.28873668 71.81041183 -31.4375 73.76953125 C-24.18620854 75.44533843 -18.28522552 74.93053882 -11.75 71.390625 C-9.37095662 69.40051516 -9.37095662 69.40051516 -9.125 65.578125 C-9.21232905 63.05465559 -9.30854938 61.85162325 -11.07324219 60.00878906 C-18.51785523 55.31707044 -26.80774666 53.9875829 -35.30859375 52.16210938 C-45.92268882 49.72899697 -55.65221163 45.92871965 -61.75 36.390625 C-65.27064734 29.42242334 -65.00034429 19.76124812 -62.875 12.33203125 C-58.3070184 2.45978154 -50.61286493 -1.81828909 -40.75 -5.609375 C-27.36821674 -9.42564865 -11.86033357 -6.94099067 0 0 Z " fill="#061366" transform="translate(1214.75,460.609375)"/>
<path d="M0 0 C0.86496094 0.43570312 1.72992187 0.87140625 2.62109375 1.3203125 C11.71604583 6.26645286 18.85477012 13.95819834 22 24 C21.625 26.80078125 21.625 26.80078125 21 29 C18.45953542 29.50688605 15.91791124 30.00566874 13.375 30.5 C12.66214844 30.64308594 11.94929687 30.78617187 11.21484375 30.93359375 C3.0605625 32.50460206 3.0605625 32.50460206 -1 32 C-2.7578125 30.35546875 -2.7578125 30.35546875 -4.125 28.1875 C-7.49262336 22.96482987 -10.91570661 20.49237385 -17 19 C-23.93176422 18.1085831 -29.9762125 19.44546754 -36 23 C-41.79835734 28.01508956 -45.88965962 34.24464291 -46.46875 42.05078125 C-46.50289024 43.47098207 -46.51268782 44.89194555 -46.5 46.3125 C-46.49427979 47.05798096 -46.48855957 47.80346191 -46.48266602 48.5715332 C-46.2193217 56.73875384 -43.67418927 62.78035326 -37.6875 68.4375 C-31.8768735 72.85808438 -25.89071123 74.66889269 -18.58984375 74.41015625 C-13.33025039 73.57718898 -7.84252198 71.51205814 -4.61328125 67.109375 C-4.24589844 66.47515625 -3.87851562 65.8409375 -3.5 65.1875 C-2.08851361 62.92814158 -1.56744691 62.13218934 1.0625 61.51953125 C3.7496337 61.49799973 6.32763815 61.71341964 9 62 C11.37492267 62.16776496 13.74992418 62.33441737 16.125 62.5 C18.08365489 62.66284429 20.04211489 62.82814802 22 63 C23.40055772 67.20167315 22.04823251 69.33702909 20.359375 73.3046875 C14.49372776 84.93485013 4.96621725 91.51043269 -7 96 C-20.2476925 99.711233 -35.8598059 97.72682191 -47.84765625 91.52734375 C-59.21941761 84.91076183 -67.3214093 75.31542271 -70.96484375 62.64453125 C-74.39084905 48.16689595 -73.77087944 34.431842 -67 21 C-65.16454317 18.18267244 -63.12986705 15.5979697 -61 13 C-60.4225 12.154375 -59.845 11.30875 -59.25 10.4375 C-45.13017633 -4.85897564 -18.58466091 -10.2645983 0 0 Z " fill="#061366" transform="translate(1007,458)"/>
<path d="M0 0 C1.5631897 0.00785522 1.5631897 0.00785522 3.15795898 0.01586914 C4.28266602 0.0190918 5.40737305 0.02231445 6.56616211 0.02563477 C7.75016602 0.03401367 8.93416992 0.04239258 10.15405273 0.05102539 C11.34192383 0.05553711 12.52979492 0.06004883 13.75366211 0.06469727 C16.69967499 0.07652864 19.64558954 0.09301252 22.59155273 0.11352539 C22.61467405 12.74348024 22.63246674 25.37343009 22.64336491 38.00340176 C22.6485942 43.86734703 22.65569268 49.73127788 22.66699219 55.59521484 C22.67781943 61.24914251 22.68382922 66.90305626 22.68642998 72.55699348 C22.68828452 74.71926149 22.69190569 76.8815287 22.69728279 79.04379082 C22.70449106 82.06111196 22.70554377 85.07837482 22.70507812 88.09570312 C22.7086734 88.99912949 22.71226868 89.90255585 22.7159729 90.83335876 C22.7056049 96.99947323 22.7056049 96.99947323 21.59155273 98.11352539 C19.82296081 98.21298992 18.05043823 98.24432756 16.27905273 98.24633789 C15.20397461 98.24762695 14.12889648 98.24891602 13.02124023 98.25024414 C11.88944336 98.24637695 10.75764648 98.24250977 9.59155273 98.23852539 C8.45975586 98.24239258 7.32795898 98.24625977 6.16186523 98.25024414 C5.08678711 98.24895508 4.01170898 98.24766602 2.90405273 98.24633789 C1.91018555 98.24520996 0.91631836 98.24408203 -0.10766602 98.24291992 C-2.40844727 98.11352539 -2.40844727 98.11352539 -3.40844727 97.11352539 C-3.50905997 94.13591169 -3.54459619 91.18145372 -3.5378418 88.20336914 C-3.53959412 87.26848663 -3.54134644 86.33360413 -3.54315186 85.37039185 C-3.547572 82.26391777 -3.54463181 79.1575001 -3.54125977 76.05102539 C-3.54193276 73.9025064 -3.54290274 71.75398748 -3.54415894 69.60546875 C-3.54563613 65.09610267 -3.54348066 60.58675636 -3.53881836 56.07739258 C-3.53312106 50.28303962 -3.53639995 44.48873297 -3.54239082 38.69438171 C-3.54599586 34.25589648 -3.54485812 29.81742232 -3.54226303 25.37893677 C-3.5415936 23.24179072 -3.54242274 21.10464368 -3.54474258 18.96749878 C-3.54726816 15.98619913 -3.54342986 13.00497559 -3.5378418 10.02368164 C-3.53986603 9.13117706 -3.54189026 8.23867249 -3.54397583 7.31912231 C-3.5190022 0.16587289 -3.5190022 0.16587289 0 0 Z " fill="#051367" transform="translate(897.408447265625,454.886474609375)"/>
<path d="M0 0 C7.16753253 4.35222917 10.4163004 11.2489012 13 19 C13.965041 29.25158305 12.31340778 38.25845091 5.8125 46.4375 C0.60737385 51.81944572 -4.98834814 54.15274411 -12.4375 54.5625 C-19.89254896 54.24926265 -26.20344617 51.25393443 -31.375 45.875 C-37.35284081 38.01210143 -39.2693707 28.68866616 -38 19 C-36.12217178 11.61528228 -32.54472098 4.82859295 -25.94140625 0.71875 C-17.07804833 -3.83490178 -9.07210932 -4.29903559 0 0 Z " fill="#FBFCFD" transform="translate(1102,479)"/>
<path d="M0 0 C6.40612199 4.0234441 10.00071558 9.82660183 12 17 C12.89673651 27.58614919 12.5932588 36.80166634 5.875 45.3125 C0.39778665 51.04127638 -5.18671577 53.18258804 -13.0625 53.5 C-20.087109 53.24082231 -24.49428552 51.16402615 -29.75 46.625 C-37.53951538 37.53723206 -38.88329635 29.72504669 -38 18 C-36.81163296 10.92381444 -33.42064577 5.66280792 -28 1 C-19.2763773 -4.74561421 -9.25516821 -4.4410596 0 0 Z " fill="#FDFDFD" transform="translate(837,480)"/>
<path d="M0 0 C5.102636 3.05295135 8.59566115 7.19619175 10.9375 12.625 C11.5625 15.4375 11.5625 15.4375 11.5625 19.4375 C-3.2875 19.4375 -18.1375 19.4375 -33.4375 19.4375 C-32.40990035 12.24430245 -31.11080724 7.69997682 -25.65625 2.85546875 C-18.39766531 -2.48082127 -8.39168358 -3.80553093 0 0 Z " fill="#F9F9FB" transform="translate(725.4375,475.5625)"/>
<path d="M0 0 C6.04715696 3.62829418 9.22035643 8.896013 11.5 15.375 C11.5 16.695 11.5 18.015 11.5 19.375 C-3.35 19.375 -18.2 19.375 -33.5 19.375 C-32.19629682 10.24907777 -29.09104857 6.60867563 -22.40234375 0.79296875 C-16.62217958 -3.51544931 -6.33257996 -2.91807222 0 0 Z " fill="#FCFCFD" transform="translate(1299.5,475.625)"/>
<path d="M0 0 C4.84063945 2.33067825 7.56352878 5.22076799 10 10 C10.65293024 15.22344192 9.845108 18.58517724 7 23 C2.07355168 27.44581921 -0.9513878 28.35086982 -7.45703125 28.28515625 C-12.01346601 27.77421963 -14.57913188 25.32287721 -17.8125 22.3125 C-19.95558401 18.13912588 -20.7963761 13.54840354 -19.375 9 C-15.22656291 0.9796883 -8.65437009 -1.3813164 0 0 Z " fill="#071365" transform="translate(913,415)"/>
<path d="M0 0 C0.98484375 -0.00128906 1.9696875 -0.00257813 2.984375 -0.00390625 C4.02078125 -0.00003906 5.0571875 0.00382812 6.125 0.0078125 C7.67960937 0.00201172 7.67960937 0.00201172 9.265625 -0.00390625 C10.25046875 -0.00261719 11.2353125 -0.00132812 12.25 0 C13.16007812 0.00112793 14.07015625 0.00225586 15.0078125 0.00341797 C17.125 0.1328125 17.125 0.1328125 18.125 1.1328125 C18.19705511 2.81890216 18.20886068 4.50781909 18.1875 6.1953125 C18.17847656 7.11441406 18.16945313 8.03351563 18.16015625 8.98046875 C18.14855469 9.69074219 18.13695312 10.40101563 18.125 11.1328125 C17.795 11.1328125 17.465 11.1328125 17.125 11.1328125 C17.125 8.1628125 17.125 5.1928125 17.125 2.1328125 C10.195 2.1328125 3.265 2.1328125 -3.875 2.1328125 C-3.875 33.1528125 -3.875 64.1728125 -3.875 96.1328125 C3.385 96.1328125 10.645 96.1328125 18.125 96.1328125 C18.11452637 94.50335693 18.10405273 92.87390137 18.09326172 91.19506836 C18.05699864 85.13633429 18.03407642 79.07760978 18.01513672 73.01879883 C18.00509355 70.39899074 17.99145648 67.77919381 17.97412109 65.15942383 C17.94979915 61.38880655 17.93849981 57.6183378 17.9296875 53.84765625 C17.91936493 52.68072739 17.90904236 51.51379852 17.89840698 50.31150818 C17.89761213 44.52031756 18.13187471 39.59149301 20.125 34.1328125 C21.19933433 37.3558155 21.21698785 39.57993784 21.16259766 42.96533203 C21.14572906 44.16312286 21.12886047 45.3609137 21.11148071 46.59500122 C21.0875827 47.88880707 21.06368469 49.18261292 21.0390625 50.515625 C21.01729166 51.85415138 20.99584219 53.19268301 20.97470093 54.53121948 C20.92923668 57.33387114 20.88001275 60.13642496 20.828125 62.93896484 C20.76177019 66.5382292 20.704552 70.13757022 20.65009499 73.73703194 C20.60734298 76.49936436 20.55989747 79.26160058 20.51099777 82.02383041 C20.47685541 83.99868243 20.44661697 85.97360068 20.41641235 87.94851685 C20.39323944 89.14000336 20.37006653 90.33148987 20.34619141 91.55908203 C20.32763092 92.61370636 20.30907043 93.66833069 20.28994751 94.75491333 C20.125 97.1328125 20.125 97.1328125 19.125 98.1328125 C17.35640807 98.23227703 15.58388549 98.26361467 13.8125 98.265625 C12.73742187 98.26691406 11.66234375 98.26820313 10.5546875 98.26953125 C9.42289062 98.26566406 8.29109375 98.26179687 7.125 98.2578125 C5.99320312 98.26167969 4.86140625 98.26554688 3.6953125 98.26953125 C2.62023437 98.26824219 1.54515625 98.26695312 0.4375 98.265625 C-0.55636719 98.26449707 -1.55023438 98.26336914 -2.57421875 98.26220703 C-4.875 98.1328125 -4.875 98.1328125 -5.875 97.1328125 C-5.9756127 94.1551988 -6.01114893 91.20074083 -6.00439453 88.22265625 C-6.00614685 87.28777374 -6.00789917 86.35289124 -6.00970459 85.38967896 C-6.01412474 82.28320488 -6.01118454 79.17678721 -6.0078125 76.0703125 C-6.00848549 73.92179351 -6.00945548 71.77327459 -6.01071167 69.62475586 C-6.01218886 65.11538978 -6.01003339 60.60604347 -6.00537109 56.09667969 C-5.9996738 50.30232673 -6.00295269 44.50802008 -6.00894356 38.71366882 C-6.01254859 34.27518359 -6.01141085 29.83670943 -6.00881577 25.39822388 C-6.00814634 23.26107783 -6.00897547 21.12393079 -6.01129532 18.98678589 C-6.0138209 16.00548624 -6.00998259 13.0242627 -6.00439453 10.04296875 C-6.00641876 9.15046417 -6.00844299 8.25795959 -6.01052856 7.33840942 C-5.9849344 0.00741759 -5.9849344 0.00741759 0 0 Z " fill="#01065A" transform="translate(497.875,454.8671875)"/>
<path d="M0 0 C8.25 0 16.5 0 25 0 C26 1 26 1 26.12304783 3.21577549 C26.12166514 4.69663592 26.12166514 4.69663592 26.12025452 6.20741272 C26.12162918 7.33628403 26.12300385 8.46515533 26.12442017 9.62823486 C26.12082489 10.87763855 26.11722961 12.12704224 26.11352539 13.41430664 C26.11367142 14.72143112 26.11381744 16.0285556 26.1139679 17.37528992 C26.11425586 20.97017099 26.10835928 24.56501897 26.10139394 28.15989232 C26.09516026 31.91286252 26.09455659 35.6658334 26.09336853 39.41880798 C26.09025526 46.53030826 26.08204192 53.64179325 26.07201904 60.75328678 C26.06085778 68.84747066 26.05534742 76.94165526 26.05032361 85.03584492 C26.03985931 101.69057225 26.02225994 118.34528418 26 135 C25.67 135 25.34 135 25 135 C24.82766852 122.02090437 24.66124827 109.04173812 24.5 96.0625 C24.48218412 94.62888374 24.48218412 94.62888374 24.46400833 93.16630554 C24.08817949 62.77553352 23.86240407 32.39341197 24 2 C16.41 2 8.82 2 1 2 C1 17.84 1 33.68 1 50 C0.67 50 0.34 50 0 50 C0 33.5 0 17 0 0 Z " fill="#282E71" transform="translate(848,417)"/>
<path d="M0 0 C0.91644287 0.00523682 1.83288574 0.01047363 2.77709961 0.01586914 C3.76645508 0.0190918 4.75581055 0.02231445 5.77514648 0.02563477 C6.81606445 0.03401367 7.85698242 0.04239258 8.92944336 0.05102539 C10.49662109 0.05779297 10.49662109 0.05779297 12.09545898 0.06469727 C14.68600996 0.07652627 17.27644895 0.0930085 19.86694336 0.11352539 C19.53694336 0.77352539 19.20694336 1.43352539 18.86694336 2.11352539 C12.26694336 2.11352539 5.66694336 2.11352539 -1.13305664 2.11352539 C-1.13305664 33.46352539 -1.13305664 64.81352539 -1.13305664 97.11352539 C6.45694336 97.11352539 14.04694336 97.11352539 21.86694336 97.11352539 C21.86694336 97.44352539 21.86694336 97.77352539 21.86694336 98.11352539 C17.88779177 98.14239523 13.90866683 98.16027945 9.92944336 98.17602539 C8.22498047 98.18859375 8.22498047 98.18859375 6.48608398 98.20141602 C5.40649414 98.20463867 4.3269043 98.20786133 3.21459961 98.21118164 C1.71425171 98.21903687 1.71425171 98.21903687 0.18359375 98.22705078 C-2.13305664 98.11352539 -2.13305664 98.11352539 -3.13305664 97.11352539 C-3.23366934 94.13591169 -3.26920557 91.18145372 -3.26245117 88.20336914 C-3.26420349 87.26848663 -3.26595581 86.33360413 -3.26776123 85.37039185 C-3.27218138 82.26391777 -3.26924118 79.1575001 -3.26586914 76.05102539 C-3.26654213 73.9025064 -3.26751212 71.75398748 -3.26876831 69.60546875 C-3.2702455 65.09610267 -3.26809004 60.58675636 -3.26342773 56.07739258 C-3.25773044 50.28303962 -3.26100933 44.48873297 -3.2670002 38.69438171 C-3.27060523 34.25589648 -3.26946749 29.81742232 -3.26687241 25.37893677 C-3.26620298 23.24179072 -3.26703211 21.10464368 -3.26935196 18.96749878 C-3.27187754 15.98619913 -3.26803923 13.00497559 -3.26245117 10.02368164 C-3.2644754 9.13117706 -3.26649963 8.23867249 -3.26858521 7.31912231 C-3.24363518 0.17263252 -3.24363518 0.17263252 0 0 Z " fill="#272C6C" transform="translate(897.133056640625,454.886474609375)"/>
<path d="M0 0 C0.33 0 0.66 0 1 0 C1.02312792 7.80575195 1.04091738 15.61149595 1.05181217 23.41727352 C1.05704002 27.0414596 1.06413587 30.6656223 1.07543945 34.28979492 C1.08627184 37.78459975 1.09227758 41.27938204 1.09487724 44.77420235 C1.09763551 46.76239389 1.10544688 48.75057631 1.11329651 50.73875427 C1.11340981 52.54050865 1.11340981 52.54050865 1.11352539 54.37866211 C1.115746 55.44233505 1.11796661 56.506008 1.12025452 57.60191345 C1 60 1 60 0 61 C-1.69558726 61.09932153 -3.39525747 61.13080007 -5.09375 61.1328125 C-6.12371094 61.13410156 -7.15367187 61.13539063 -8.21484375 61.13671875 C-9.84099609 61.13091797 -9.84099609 61.13091797 -11.5 61.125 C-12.58410156 61.12886719 -13.66820312 61.13273438 -14.78515625 61.13671875 C-15.81511719 61.13542969 -16.84507812 61.13414062 -17.90625 61.1328125 C-18.85822266 61.13168457 -19.81019531 61.13055664 -20.79101562 61.12939453 C-23 61 -23 61 -24 60 C-24.09376053 58.18944975 -24.1174411 56.37522799 -24.11352539 54.56225586 C-24.11344986 53.40112778 -24.11337433 52.23999969 -24.11329651 51.04368591 C-24.10813522 49.780168 -24.10297394 48.51665009 -24.09765625 47.21484375 C-24.0962413 45.92888809 -24.09482635 44.64293243 -24.09336853 43.31800842 C-24.08954418 39.89356557 -24.07971462 36.46916491 -24.06866455 33.04473877 C-24.05844864 29.55261811 -24.05387053 26.06049066 -24.04882812 22.56835938 C-24.03809227 15.71222222 -24.02101684 8.85611313 -24 2 C-23.67 2 -23.34 2 -23 2 C-23 20.81 -23 39.62 -23 59 C-15.74 59 -8.48 59 -1 59 C-1.00523682 57.35483398 -1.01047363 55.70966797 -1.01586914 54.01464844 C-1.03395525 47.91683495 -1.04544528 41.81902384 -1.05493164 35.72119141 C-1.05996357 33.08088787 -1.06678971 30.44058713 -1.07543945 27.80029297 C-1.08755479 24.00747998 -1.0932397 20.2147038 -1.09765625 16.421875 C-1.10281754 15.23946228 -1.10797882 14.05704956 -1.11329651 12.83880615 C-1.11340981 11.1875473 -1.11340981 11.1875473 -1.11352539 9.50292969 C-1.115746 8.53474304 -1.11796661 7.5665564 -1.12025452 6.56903076 C-1.01048862 4.22407125 -0.66739034 2.24230591 0 0 Z " fill="#050953" transform="translate(583,492)"/>
<path d="M0 0 C0.33 0 0.66 0 1 0 C1 28.05 1 56.1 1 85 C-6.59 85 -14.18 85 -22 85 C-23.58894072 83.41105928 -23.16998411 81.75198576 -23.1875 79.5625 C-23.20167969 78.75941406 -23.21585938 77.95632813 -23.23046875 77.12890625 C-23 75 -23 75 -21 73 C-21 76.3 -21 79.6 -21 83 C-14.07 83 -7.14 83 0 83 C0 55.61 0 28.22 0 0 Z " fill="#00014B" transform="translate(872,468)"/>
<path d="M0 0 C2.25779693 3.3866954 2.24486783 4.51690851 2.22705078 8.48120117 C2.22689972 9.60213669 2.22674866 10.7230722 2.22659302 11.87797546 C2.21627045 13.08742325 2.20594788 14.29687103 2.1953125 15.54296875 C2.1924826 16.78170242 2.18965271 18.0204361 2.18673706 19.29670715 C2.17743186 22.58638087 2.15946791 25.87585863 2.1373291 29.16546631 C2.1168527 32.52369794 2.10773152 35.88195828 2.09765625 39.24023438 C2.07558268 45.82690963 2.04104577 52.41341674 2 59 C8.93 59 15.86 59 23 59 C23 59.33 23 59.66 23 60 C19.3545658 60.19588601 15.7086421 60.38030536 12.0625 60.5625 C10.50112305 60.64661133 10.50112305 60.64661133 8.90820312 60.73242188 C7.91884766 60.78076172 6.92949219 60.82910156 5.91015625 60.87890625 C4.99371338 60.9260376 4.07727051 60.97316895 3.13305664 61.02172852 C1 61 1 61 0 60 C-0.09386381 58.1281906 -0.11743804 56.2528194 -0.11352539 54.37866211 C-0.11344986 53.17749252 -0.11337433 51.97632294 -0.11329651 50.73875427 C-0.10813522 49.4314888 -0.10297394 48.12422333 -0.09765625 46.77734375 C-0.09579198 45.43355868 -0.09436812 44.08977293 -0.09336853 42.74598694 C-0.08954402 39.20317723 -0.07971432 35.6604083 -0.06866455 32.11761475 C-0.05844899 28.50484773 -0.0538706 24.89207416 -0.04882812 21.27929688 C-0.03809198 14.1861812 -0.02101636 7.09309326 0 0 Z " fill="#191F67" transform="translate(625,492)"/>
<path d="M0 0 C0.495 1.98 0.495 1.98 1 4 C-13.85 4 -28.7 4 -44 4 C-44 3.67 -44 3.34 -44 3 C-42.77369873 2.98018066 -41.54739746 2.96036133 -40.28393555 2.93994141 C-35.73831492 2.86392381 -31.19301601 2.77520053 -26.64770508 2.68261719 C-24.67967069 2.64431153 -22.7115659 2.60946145 -20.7434082 2.578125 C-17.91592228 2.53250889 -15.08892166 2.47450902 -12.26171875 2.4140625 C-10.93970711 2.39673569 -10.93970711 2.39673569 -9.59098816 2.37905884 C-8.3600518 2.3492543 -8.3600518 2.3492543 -7.10424805 2.31884766 C-6.02169991 2.29886215 -6.02169991 2.29886215 -4.9172821 2.2784729 C-2.67398371 2.09273845 -2.67398371 2.09273845 0 0 Z " fill="#E0E3ED" transform="translate(1310,491)"/>
<path d="M0 0 C0.33 0 0.66 0 1 0 C2.5056904 5.80766296 3.21824777 10.9981863 3 17 C2.01 17 1.02 17 0 17 C0 11.39 0 5.78 0 0 Z " fill="#18216E" transform="translate(665,496)"/>
<path d="M0 0 C0.99 0.33 1.98 0.66 3 1 C0.03 3.64 -2.94 6.28 -6 9 C-6 6 -6 6 -4.6875 4.39453125 C-4.130625 3.87246094 -3.57375 3.35039062 -3 2.8125 C-2.443125 2.28269531 -1.88625 1.75289063 -1.3125 1.20703125 C-0.6628125 0.60955078 -0.6628125 0.60955078 0 0 Z " fill="#020858" transform="translate(683,464)"/>
<path d="M0 0 C0.55429688 0.42152344 1.10859375 0.84304688 1.6796875 1.27734375 C2.40414062 1.82519531 3.12859375 2.37304688 3.875 2.9375 C4.59429687 3.48277344 5.31359375 4.02804687 6.0546875 4.58984375 C7.94357079 6.03964624 7.94357079 6.03964624 10 7 C9.67 7.66 9.34 8.32 9 9 C7.67870176 8.265611 6.36816829 7.51183106 5.0625 6.75 C4.33160156 6.33234375 3.60070312 5.9146875 2.84765625 5.484375 C0.68142682 3.74406383 0.36405249 2.70438996 0 0 Z " fill="#5172FE" transform="translate(220,513)"/>
<path d="M0 0 C5.35048061 0.37328935 7.50912907 1.9957657 11 6 C7.05594798 6 5.9482215 4.50598828 3 2 C2.01 1.34 1.02 0.68 0 0 Z " fill="#141A62" transform="translate(993,477)"/>
</svg>
