<?xml version="1.0" encoding="UTF-8"?>
<svg version="1.1" xmlns="http://www.w3.org/2000/svg" width="2406" height="700">
<path d="M0 0 C793.98 0 1587.96 0 2406 0 C2406 231 2406 462 2406 700 C1612.02 700 818.04 700 0 700 C0 469 0 238 0 0 Z " fill="#FDFDFD" transform="translate(0,0)"/>
<path d="M0 0 C3.36819358 -0.0007179 6.73638327 -0.00286568 10.10457587 -0.00549722 C21.88788139 -0.01469103 33.67117572 -0.01883856 45.4544847 -0.01804566 C56.39291393 -0.01744245 67.33129424 -0.02805711 78.26971108 -0.04378933 C87.71579787 -0.05688565 97.16186866 -0.06222887 106.60796446 -0.06159025 C112.22676762 -0.06133643 117.84552689 -0.06412539 123.4643209 -0.0747683 C128.73657664 -0.08448789 134.00874676 -0.08450215 139.28100562 -0.07725167 C141.20579951 -0.07621151 143.13059887 -0.07853463 145.05538344 -0.08461213 C155.30474094 -0.11486325 165.0932421 0.19040273 175.19447494 2.16725707 C176.1774194 2.33790585 177.16036386 2.50855462 178.17309451 2.68437457 C192.92544242 5.37622135 206.80147244 14.81261924 218.19447494 24.16725707 C219.04783431 24.82467895 219.90119369 25.48210082 220.78041244 26.15944457 C238.01849033 40.49661615 245.48966622 64.46582913 247.91594148 85.9140954 C248.90219264 97.43312253 248.61455279 109.07692053 248.58664894 120.63100803 C248.57978126 124.84852417 248.59037733 129.06600498 248.59858871 133.28351378 C248.61184664 141.51821762 248.60908412 149.75283888 248.60035078 157.9875458 C248.59354357 164.68647348 248.59267056 171.38537822 248.59592223 178.08430839 C248.59638193 179.04193856 248.59684163 179.99956874 248.59731526 180.98621802 C248.59827455 182.93231445 248.59924719 184.87841087 248.60023303 186.82450729 C248.60876354 205.02247228 248.59898942 223.22039174 248.58283193 241.41834926 C248.56942874 256.99588882 248.57176142 272.57336129 248.58558822 288.15089965 C248.6016818 306.29044897 248.60794204 324.42995851 248.59875143 342.56951398 C248.59779589 344.50768315 248.59685278 346.44585233 248.59592223 348.38402152 C248.59545941 349.33735861 248.59499658 350.2906957 248.59451973 351.27292179 C248.59194131 357.95579435 248.59627586 364.63864146 248.60336089 371.32151008 C248.61181814 379.47706621 248.60940759 387.63253583 248.59351866 395.78808219 C248.58569268 399.94039472 248.58244609 404.0925636 248.59246612 408.24487472 C248.66384432 440.56087644 246.57139919 472.71228428 224.19447494 498.16725707 C223.54220931 498.97292113 222.88994369 499.7785852 222.21791244 500.60866332 C208.99651498 516.35414574 189.25002312 525.74359363 169.19447494 529.16725707 C166.69550631 529.31357586 164.21780222 529.41808979 161.71701217 529.47652221 C160.97889198 529.49679111 160.2407718 529.51706001 159.48028433 529.53794312 C157.02810308 529.60302543 154.57582461 529.66062214 152.12343001 529.71706176 C151.26644818 529.73792893 150.40946635 529.7587961 149.52651536 529.78029561 C129.44363372 530.26417858 109.3619433 530.34831264 89.27406836 530.36744571 C86.27914473 530.370434 83.28422445 530.37454655 80.28930259 530.37894988 C70.85154687 530.39248654 61.4137993 530.40223101 51.97603458 530.40615177 C41.19622467 530.41066091 30.41653974 530.42839807 19.6367678 530.45715237 C11.20519416 530.47884451 2.77365564 530.48885932 -5.65794557 530.49019289 C-10.65467621 530.4912314 -15.65128707 530.49693822 -20.6479876 530.5150125 C-25.32950821 530.53163568 -30.01082033 530.53358064 -34.69236016 530.5248735 C-36.39253643 530.5241119 -38.09272471 530.5283274 -39.79287171 530.53833175 C-58.58559821 530.64232052 -76.42348992 528.28535111 -93.23911881 519.47194457 C-95.82013573 518.08015033 -95.82013573 518.08015033 -98.80552506 517.16725707 C-98.80552506 516.50725707 -98.80552506 515.84725707 -98.80552506 515.16725707 C-99.53384538 514.90815551 -100.26216569 514.64905395 -101.01255631 514.38210082 C-117.38813517 507.25929659 -127.69615191 489.7201733 -134.61802506 474.10475707 C-143.54779669 451.24094582 -142.10601997 425.66666202 -142.0669744 401.52659976 C-142.06238784 397.31870834 -142.06946378 393.11083249 -142.07493424 388.90294433 C-142.08376352 380.69192706 -142.0819357 372.48094663 -142.07610896 364.269928 C-142.07156831 357.59153437 -142.07098988 350.91315097 -142.0731566 344.23475623 C-142.07346306 343.27959495 -142.07376953 342.32443367 -142.07408528 341.3403281 C-142.07472481 339.39922028 -142.07537324 337.45811246 -142.07603046 335.51700465 C-142.0817144 317.37585147 -142.0752056 299.23471862 -142.06442973 281.09356878 C-142.05548878 265.56091111 -142.05705451 250.02828334 -142.06626725 234.49562621 C-142.0769918 216.40589566 -142.0811728 198.31618283 -142.07504272 180.22644955 C-142.0744057 178.29452606 -142.07377696 176.36260257 -142.0731566 174.43067908 C-142.07284804 173.48041466 -142.07253949 172.53015023 -142.07222159 171.55108991 C-142.07050174 164.88579474 -142.07339423 158.22051091 -142.0781157 151.5552175 C-142.08374857 143.42565488 -142.0821575 135.29613084 -142.07155421 127.16657259 C-142.06633082 123.02667234 -142.06418337 118.88683621 -142.07085252 114.74693656 C-142.12563911 77.64398264 -138.58195093 49.89827922 -111.80552506 22.16725707 C-111.2164235 21.55237426 -110.62732194 20.93749145 -110.02036881 20.30397582 C-81.51675588 -6.94673105 -36.03632689 0.00432508 0 0 Z " fill="#637BF6" transform="translate(229.80552506446838,78.83274292945862)"/>
<path d="M0 0 C3.58390592 0.00634752 7.16454402 -0.04081601 10.74804688 -0.09130859 C33.60656945 -0.21882036 33.60656945 -0.21882036 41.95898438 6.63134766 C51.01913654 15.79518114 53.02683147 25.59547135 53.1484375 38.22460938 C53.16087746 39.31171959 53.16087746 39.31171959 53.17356873 40.42079163 C53.1908683 41.98448473 53.20606188 43.54820229 53.21934509 45.11193466 C53.24060078 47.60399347 53.26761112 50.09593422 53.29602051 52.58792114 C53.35546095 57.89401591 53.40759428 63.20016972 53.45898438 68.50634766 C53.51871175 74.6286137 53.58158698 80.75082374 53.65086365 86.87298965 C53.67691161 89.29697045 53.69804942 91.72095861 53.71887207 94.14498901 C53.79628422 101.82235203 53.99008555 109.4807185 54.4140625 117.14746094 C54.45222832 117.87122862 54.49039413 118.5949963 54.52971649 119.34069633 C54.71862675 123.11154797 54.71862675 123.11154797 55.95898438 126.63134766 C57.1269455 126.65196259 58.29490662 126.67257751 59.4982605 126.69381714 C70.53244421 126.88976017 81.56641428 127.09527035 92.60024834 127.31002617 C98.27216086 127.42011653 103.94409458 127.52689493 109.61621094 127.62597656 C115.09528589 127.72181014 120.57412764 127.82651049 126.0529213 127.93722916 C128.13791176 127.97783025 130.22296586 128.01529501 132.30807114 128.0494957 C135.23995568 128.09813402 138.17141082 128.15815943 141.10302734 128.22070312 C141.95539474 128.23221405 142.80776215 128.24372498 143.68595886 128.25558472 C153.9825881 128.50350727 163.57749876 130.12591784 171.64648438 136.88134766 C180.22434988 147.08205258 181.27182711 156.31058705 181.29492188 169.36962891 C181.30157867 170.68617966 181.30823547 172.00273041 181.31509399 173.35917664 C181.32701325 176.13702678 181.33078039 178.91475308 181.32958984 181.69262695 C181.32938697 185.22280513 181.35667909 188.75217545 181.39113426 192.28216267 C181.41894353 195.6863275 181.41755733 199.09035235 181.41992188 202.49462891 C181.43429291 203.74705887 181.44866394 204.99948883 181.46347046 206.28987122 C181.41290767 216.10629391 179.66521482 226.04271847 172.95898438 233.63134766 C162.95226535 241.35516501 151.49305965 243.06532268 139.16210938 243.14306641 C137.51671928 243.17006119 137.51671928 243.17006119 135.83808899 243.19760132 C132.29508917 243.251901 128.75224109 243.28586613 125.20898438 243.31884766 C122.75836945 243.3516849 120.30776699 243.38546579 117.85717773 243.42016602 C97.22541244 243.69353735 76.59208797 243.74832557 55.95898438 243.63134766 C55.96062088 244.35143005 55.96225739 245.07151245 55.96394348 245.81341553 C55.9984966 263.57494354 55.94840892 281.33266023 55.6965332 299.09277344 C55.6628844 301.63990554 55.63498379 304.18711944 55.61254883 306.734375 C55.23931429 348.43605564 55.23931429 348.43605564 44.29492188 360.45947266 C35.33851107 368.88422437 23.86977436 368.78941852 12.25195312 368.86962891 C11.13138016 368.87770065 10.01080719 368.8857724 8.85627747 368.89408875 C6.49200972 368.90787699 4.12772251 368.91862249 1.76342773 368.92651367 C-0.64255652 368.93804421 -3.04851498 368.95851271 -5.4543457 368.98803711 C-8.94825454 369.03086459 -12.44140762 369.04690219 -15.93554688 369.05712891 C-16.99941116 369.07463699 -18.06327545 369.09214508 -19.15937805 369.11018372 C-29.97702152 369.07908731 -37.86325185 365.57866086 -46.04101562 358.63134766 C-46.82476562 357.99197266 -47.60851562 357.35259766 -48.41601562 356.69384766 C-52.90720457 350.99349246 -52.44423459 343.22884385 -52.63476562 336.31884766 C-52.67178589 335.19365723 -52.70880615 334.0684668 -52.74694824 332.90917969 C-53.23251717 317.07694996 -53.38229115 301.23555922 -53.56707764 285.39758301 C-53.61841448 281.00224003 -53.67320267 276.60696874 -53.7328949 272.21173096 C-53.7589489 270.19458026 -53.78000697 268.17736697 -53.80090332 266.16015625 C-53.0069779 254.78258169 -53.0069779 254.78258169 -56.04101562 244.63134766 C-57.38492224 244.47796701 -58.73655368 244.39167255 -60.08789062 244.33251953 C-60.97581299 244.29316284 -61.86373535 244.25380615 -62.77856445 244.21325684 C-63.77267334 244.17591431 -64.76678223 244.13857178 -65.79101562 244.10009766 C-66.84377686 244.05856567 -67.89653809 244.01703369 -68.98120117 243.97424316 C-85.81709222 243.3650458 -102.66943721 243.28279543 -119.51416016 243.10528564 C-124.36263511 243.05409457 -129.21104177 242.99933151 -134.05941772 242.93946838 C-136.29715872 242.91325776 -138.53490834 242.89226362 -140.77270508 242.87145996 C-147.26215241 242.79857099 -153.62312158 242.65671624 -160.04101562 241.63134766 C-160.04101562 240.64134766 -160.04101562 239.65134766 -160.04101562 238.63134766 C-160.915 238.38513672 -161.78898437 238.13892578 -162.68945312 237.88525391 C-169.69112829 235.26574606 -176.43702905 229.95147508 -179.60351562 223.06884766 C-180.35742188 221.06494141 -180.35742188 221.06494141 -181.04101562 218.63134766 C-181.37746094 217.5362085 -181.71390625 216.44106934 -182.06054688 215.31274414 C-183.52878874 209.37513867 -183.38531889 203.37964241 -183.41210938 197.29541016 C-183.42113785 196.02087982 -183.43016632 194.74634949 -183.43946838 193.43319702 C-183.45393415 190.74519703 -183.46364308 188.05762096 -183.46655273 185.36962891 C-183.47193404 181.9512799 -183.50963738 178.53411389 -183.5552969 175.1160984 C-183.59245604 171.82177477 -183.59359205 168.52741498 -183.59960938 165.23291016 C-183.61914169 164.01906647 -183.63867401 162.80522278 -183.65879822 161.55459595 C-183.6112661 152.52443928 -181.49527412 146.27915076 -176.11914062 139.04541016 C-165.56888544 128.72058778 -154.66168074 128.50272058 -140.55273438 128.31494141 C-139.21881099 128.29423249 -137.88489277 128.27318845 -136.55097961 128.25183105 C-133.00612854 128.19639308 -129.46121887 128.14688838 -125.91625977 128.09891891 C-123.72938893 128.06885966 -121.54255028 128.03706483 -119.35571289 128.00466919 C-98.25077176 127.69253111 -77.14847833 127.47225848 -56.04101562 127.63134766 C-56.04625244 126.75365723 -56.05148926 125.8759668 -56.05688477 124.97167969 C-56.16300962 103.88373172 -56.03675556 82.79999411 -55.72262573 61.71405029 C-55.68503296 59.12738407 -55.65060434 56.54066982 -55.61941528 53.95391846 C-55.57394491 50.27717859 -55.51611606 46.60082688 -55.45507812 42.92431641 C-55.44352188 41.83087418 -55.43196564 40.73743195 -55.4200592 39.6108551 C-55.20035335 28.15423892 -53.8959185 19.36237431 -46.04101562 10.63134766 C-33.55050551 -0.91741765 -15.86123528 -0.05879371 0 0 Z " fill="#FCFCFD" transform="translate(283.041015625,158.36865234375)"/>
<path d="M0 0 C2.12524414 -0.36749268 2.12524414 -0.36749268 4.78515625 -0.35644531 C5.7795874 -0.35944641 6.77401855 -0.36244751 7.79858398 -0.36553955 C8.87567627 -0.35319275 9.95276855 -0.34084595 11.0625 -0.328125 C12.164729 -0.32625183 13.26695801 -0.32437866 14.40258789 -0.32244873 C16.73619606 -0.31571733 19.06979275 -0.30178145 21.40332031 -0.28125 C24.98513209 -0.25012918 28.56650402 -0.24028416 32.1484375 -0.234375 C34.41146372 -0.22520403 36.67448545 -0.21482797 38.9375 -0.203125 C40.55313843 -0.19675018 40.55313843 -0.19675018 42.20141602 -0.19024658 C43.19584717 -0.18063904 44.19027832 -0.17103149 45.21484375 -0.16113281 C46.09261475 -0.15430481 46.97038574 -0.14747681 47.87475586 -0.14044189 C50 0 50 0 52 1 C52 90.1 52 179.2 52 271 C49.64145005 272.17927497 48.21183285 272.13283758 45.58203125 272.14526367 C44.21050903 272.15483345 44.21050903 272.15483345 42.8112793 272.16459656 C41.82168213 272.16570938 40.83208496 272.1668222 39.8125 272.16796875 C38.79905518 272.17129715 37.78561035 272.17462555 36.74145508 272.17805481 C34.59619603 272.18312315 32.45092909 272.18546316 30.30566406 272.18530273 C27.01354078 272.187491 23.72175152 272.20565268 20.4296875 272.22460938 C18.34895948 272.22754288 16.26822987 272.22952796 14.1875 272.23046875 C13.19790283 272.23765427 12.20830566 272.24483978 11.1887207 272.25224304 C10.27437256 272.24916641 9.36002441 272.24608978 8.41796875 272.24291992 C7.61125732 272.24434494 6.8045459 272.24576996 5.97338867 272.24723816 C4 272 4 272 2 270 C1.49755859 268.21240234 1.49755859 268.21240234 1.1484375 266.0859375 C1.01953125 265.32539063 0.890625 264.56484375 0.7578125 263.78125 C0.63148438 262.9871875 0.50515625 262.193125 0.375 261.375 C0.2409375 260.57320313 0.106875 259.77140625 -0.03125 258.9453125 C-0.36134789 256.96472516 -0.68161083 254.98250325 -1 253 C-1.7425 253.969375 -2.485 254.93875 -3.25 255.9375 C-12.01413612 266.1038979 -24.65408162 273.87321871 -38 276 C-42.5656435 276.28275321 -47.11443263 276.27923645 -51.6875 276.25 C-53.47317383 276.26160156 -53.47317383 276.26160156 -55.29492188 276.2734375 C-81.80768289 276.21576972 -103.46499827 266.75003228 -122.55078125 248.5703125 C-142.38372096 227.67550555 -149.74503992 202.12729719 -149.23828125 173.91015625 C-148.95148215 165.1927478 -148.20189313 156.69644381 -146.25 148.1875 C-145.98775635 147.03701172 -145.98775635 147.03701172 -145.72021484 145.86328125 C-143.08836684 134.73511621 -139.44294365 124.53051567 -133 115 C-132.44183594 114.16855469 -131.88367187 113.33710938 -131.30859375 112.48046875 C-129.57650028 109.95788966 -127.79833852 107.47568628 -126 105 C-125.45601562 104.22527344 -124.91203125 103.45054687 -124.3515625 102.65234375 C-112.60116351 86.57139865 -93.52246691 77.65783028 -74.4375 73.6875 C-53.77082141 70.81867534 -32.90090778 72.66641912 -15 84 C-11.45336785 86.8157838 -8.20917045 89.81198891 -5 93 C-4.0097629 78.19331146 -3.72277734 63.3980133 -3.5 48.5625 C-3.10920256 22.57812234 -3.10920256 22.57812234 -2.59375 11.02734375 C-2.55030457 9.85891685 -2.55030457 9.85891685 -2.50598145 8.66688538 C-2.31765993 4.9665618 -2.1018806 3.1528209 0 0 Z " fill="#091463" transform="translate(1359,192)"/>
<path d="M0 0 C0 0.66 0 1.32 0 2 C0.5671875 2.25523437 1.134375 2.51046875 1.71875 2.7734375 C4.27717262 4.14902774 6.2972364 5.73152855 8.5 7.625 C9.2528125 8.25664062 10.005625 8.88828125 10.78125 9.5390625 C13.63705398 12.70659156 15.26362891 16.13338073 17 20 C17.42708252 19.55197021 17.85416504 19.10394043 18.29418945 18.64233398 C35.1514986 1.07009937 51.17932012 -9.58122034 76.1796875 -10.18359375 C78.47387773 -10.21291614 80.76817168 -10.23496 83.0625 -10.25 C84.69481567 -10.2641394 84.69481567 -10.2641394 86.36010742 -10.27856445 C107.54294009 -10.19390341 127.25739211 -3.03360893 142.7578125 11.69921875 C163.90754178 33.40164131 164.32392991 60.42069726 164.20278788 88.96397471 C164.19013927 92.4552689 164.18909904 95.9465679 164.18673706 99.43788147 C164.18056324 106.02478429 164.16420899 112.61161937 164.14403808 119.19849259 C164.12155014 126.7077569 164.11065349 134.21702473 164.10064721 141.72631443 C164.07983826 157.15091528 164.04474358 172.57544885 164 188 C161.60417654 189.19791173 160.13222462 189.1206744 157.45849609 189.11352539 C156.51767181 189.11344986 155.57684753 189.11337433 154.60751343 189.11329651 C153.08089584 189.10555458 153.08089584 189.10555458 151.5234375 189.09765625 C149.96286118 189.09553383 149.96286118 189.09553383 148.37075806 189.09336853 C145.03880979 189.08775866 141.70692805 189.07520447 138.375 189.0625 C136.11979264 189.05748627 133.86458422 189.05292314 131.609375 189.04882812 C126.07289386 189.03778603 120.53645168 189.02103827 115 189 C113.455954 185.911908 113.622578 182.60920251 113.45068359 179.21191406 C113.40864996 178.41259586 113.36661633 177.61327766 113.32330894 176.7897377 C112.89890729 168.0243148 112.83334421 159.26094077 112.80076981 150.48674774 C112.7887158 147.52416455 112.76921125 144.5617107 112.74765015 141.59918213 C112.68685811 133.19084017 112.63197942 124.7825234 112.59863281 116.37402344 C112.57755155 111.19192424 112.54216868 106.01008311 112.49787521 100.82813263 C112.48385231 98.87480978 112.47502431 96.92144155 112.47182083 94.96807098 C112.46974242 71.37545165 112.46974242 71.37545165 102.09765625 50.75 C94.03438632 42.8179587 84.94785252 40.65487064 73.9375 40.5625 C62.36320245 40.74366709 52.71774297 42.87873418 44 51 C36.00296075 60.90350641 34.55785945 72.64524766 34.3359375 84.9921875 C34.30301605 86.26939667 34.2700946 87.54660583 34.23617554 88.86251831 C33.73077917 109.52839444 33.68911332 130.21368545 33.59863281 150.88476562 C33.57773835 155.54251306 33.5425564 160.19996269 33.49787521 164.85754013 C33.48376167 166.6125835 33.47500332 168.3676788 33.47182083 170.12277603 C33.46693072 172.54978604 33.44384897 174.97598609 33.41650391 177.40283203 C33.42101311 178.4747303 33.42101311 178.4747303 33.4256134 179.56828308 C33.37528351 182.56511645 33.12406849 184.75424805 31.76490784 187.44644165 C29.49484751 189.44465997 28.34561749 189.48628008 25.3449707 189.45410156 C24.40422195 189.45379944 23.46347321 189.45349731 22.49421692 189.45318604 C20.97534126 189.42221832 20.97534126 189.42221832 19.42578125 189.390625 C18.38681198 189.38496521 17.34784271 189.37930542 16.27738953 189.37347412 C12.95529319 189.35106327 9.63427096 189.3008569 6.3125 189.25 C4.06186452 189.22994115 1.81121216 189.21168931 -0.43945312 189.1953125 C-5.9600026 189.1511832 -11.47992457 189.08422421 -17 189 C-18.45263975 186.09472051 -18.21924393 183.16183677 -18.28125 179.97265625 C-18.29920624 179.22513092 -18.31716248 178.47760559 -18.33566284 177.70742798 C-18.37442875 176.04649006 -18.41074366 174.38549368 -18.44500732 172.72445679 C-18.50091099 170.01840269 -18.56386188 167.31257321 -18.62744141 164.60668945 C-18.88702296 153.07496987 -19.04632278 141.54364166 -19.15735626 130.00972939 C-19.2021573 125.49192268 -19.25386435 120.97418679 -19.30488968 116.45644665 C-19.3542428 111.97831117 -19.39016652 107.50031047 -19.41653252 103.0219841 C-19.43627342 100.17357679 -19.46804216 97.3253852 -19.50262833 94.47712326 C-19.52267912 92.52312475 -19.52821128 90.56899377 -19.53317261 88.61489868 C-19.68726299 77.42274137 -21.29698307 66.76902404 -26.875 56.9375 C-27.20113281 56.31423828 -27.52726563 55.69097656 -27.86328125 55.04882812 C-30.60350474 50.04285564 -33.54258199 46.81913934 -39 45 C-39 44.34 -39 43.68 -39 43 C-51.10753716 39.34817551 -67.16788826 36.75311282 -78.9375 42.69921875 C-79.618125 43.12847656 -80.29875 43.55773437 -81 44 C-81.70125 44.43957031 -82.4025 44.87914062 -83.125 45.33203125 C-89.98609451 50.46485764 -94.86839755 59.43251231 -96.56555176 67.78251648 C-97.02284864 71.16921493 -97.20262388 74.46603352 -97.29882812 77.88208008 C-97.31826477 78.54465757 -97.33770142 79.20723507 -97.35772705 79.88989067 C-97.42022543 82.07883692 -97.47607071 84.26788906 -97.53125 86.45703125 C-97.57319439 88.01536579 -97.61514604 89.57370014 -97.65710449 91.1320343 C-98.16583115 110.65209975 -98.34902216 130.17775071 -98.55224609 149.70288086 C-98.59499735 153.78275732 -98.64214729 157.86256481 -98.69187927 161.94236183 C-98.71801013 164.19785624 -98.73902811 166.45335981 -98.7598877 168.70890808 C-98.9620252 186.9620252 -98.9620252 186.9620252 -101 189 C-102.55999048 189.09846967 -104.12440544 189.12798618 -105.6875 189.12939453 C-106.68523438 189.13254669 -107.68296875 189.13569885 -108.7109375 189.13894653 C-109.79632812 189.1369223 -110.88171875 189.13489807 -112 189.1328125 C-113.10601563 189.13376923 -114.21203125 189.13472595 -115.3515625 189.13571167 C-117.69531308 189.13639367 -120.03906553 189.13453804 -122.3828125 189.13037109 C-125.98441788 189.12502314 -129.58589853 189.13031547 -133.1875 189.13671875 C-135.45833361 189.13605797 -137.72916714 189.13477682 -140 189.1328125 C-141.08539062 189.13483673 -142.17078125 189.13686096 -143.2890625 189.13894653 C-144.28679688 189.13579437 -145.28453125 189.13264221 -146.3125 189.12939453 C-147.19550781 189.12859894 -148.07851563 189.12780334 -148.98828125 189.12698364 C-151 189 -151 189 -152 188 C-152.09773112 185.49586483 -152.12995681 183.01933809 -152.12025452 180.51475525 C-152.12110894 179.72169167 -152.12196337 178.92862808 -152.12284368 178.11153227 C-152.1245009 175.43362604 -152.11897319 172.75578139 -152.11352539 170.07788086 C-152.11324354 168.16642763 -152.1134012 166.25497429 -152.1139679 164.34352112 C-152.11425597 159.13712541 -152.10835761 153.93075252 -152.10139394 148.72436213 C-152.09516208 143.28975841 -152.09455674 137.85515423 -152.09336853 132.42054749 C-152.09025472 122.12161242 -152.08204066 111.82268792 -152.07201904 101.52375752 C-152.06085945 89.80207243 -152.05534784 78.08038685 -152.05032361 66.35869777 C-152.03985808 42.23912598 -152.02225768 18.11956358 -152 -6 C-149.6479994 -7.1760003 -148.26265599 -7.12084541 -145.64208984 -7.11352539 C-144.29091568 -7.11341209 -144.29091568 -7.11341209 -142.91244507 -7.11329651 C-141.93844757 -7.10813522 -140.96445007 -7.10297394 -139.9609375 -7.09765625 C-138.96494537 -7.0962413 -137.96895325 -7.09482635 -136.94277954 -7.09336853 C-133.75348947 -7.08775936 -130.56426894 -7.0752053 -127.375 -7.0625 C-125.21614685 -7.05748618 -123.05729259 -7.05292307 -120.8984375 -7.04882812 C-115.5989345 -7.03778695 -110.29947222 -7.02103988 -105 -7 C-103.63860017 -2.35137673 -102.56726818 2.14107049 -101.875 6.9375 C-101.62363281 8.65259766 -101.62363281 8.65259766 -101.3671875 10.40234375 C-101.24601563 11.25957031 -101.12484375 12.11679687 -101 13 C-100.47792969 12.35933594 -99.95585938 11.71867187 -99.41796875 11.05859375 C-91.52690155 1.78555331 -82.59471413 -4.26200261 -71 -8 C-69.64261719 -8.44859375 -69.64261719 -8.44859375 -68.2578125 -8.90625 C-44.70486279 -15.51331122 -21.6794705 -9.4111652 0 0 Z " fill="#091362" transform="translate(799,275)"/>
<path d="M0 0 C1.08933838 0.00563965 2.17867676 0.0112793 3.30102539 0.01708984 C30.6968757 0.42547017 56.59590986 9.90065132 76.5703125 28.94140625 C91.1651232 44.27265235 98.74240195 62.89636299 102.8125 83.3125 C102.9875708 84.07054932 103.1626416 84.82859863 103.34301758 85.60961914 C106.12416348 101.62109408 105.49099354 122.09398299 99.8125 137.3125 C99.42578125 138.37235107 99.42578125 138.37235107 99.03125 139.45361328 C89.59817876 164.47199608 73.54213576 184.49164823 49.25 196.125 C24.03369627 206.78495347 -6.09827703 207.51641363 -32.1875 199.3125 C-33.10402344 199.07144531 -34.02054688 198.83039063 -34.96484375 198.58203125 C-57.99570648 191.99736848 -76.63140866 173.6740476 -88.1875 153.3125 C-96.17618342 138.65175359 -98.92509028 124.00869056 -98.6875 107.5625 C-98.68295807 106.82636475 -98.67841614 106.09022949 -98.67373657 105.33178711 C-98.58684456 93.28232612 -97.36403096 81.95584395 -94.1875 70.3125 C-93.99542969 69.39210938 -93.80335937 68.47171875 -93.60546875 67.5234375 C-90.76641774 55.30939071 -82.36690036 42.61883996 -74.1875 33.3125 C-73.52492188 32.508125 -72.86234375 31.70375 -72.1796875 30.875 C-53.92765596 9.41741453 -27.71751159 -0.15242563 0 0 Z " fill="#091362" transform="translate(1839.1875,264.6875)"/>
<path d="M0 0 C3.5764531 2.78774846 6.81766421 5.77315602 10 9 C10.69609375 9.68578125 11.3921875 10.3715625 12.109375 11.078125 C18.06471142 17.31045381 21.97092509 24.45562484 26 32 C26.40089844 32.69738281 26.80179688 33.39476562 27.21484375 34.11328125 C39.01885332 55.49323432 35 75.11840639 35 100 C-11.86 100 -58.72 100 -107 100 C-102.29074827 115.71889893 -102.29074827 115.71889893 -94 129 C-93.3090625 129.79792969 -92.618125 130.59585938 -91.90625 131.41796875 C-87.27009312 136.41136374 -83.58133636 139.21523082 -77 141 C-76.38962891 141.18143555 -75.77925781 141.36287109 -75.15039062 141.54980469 C-70.05722611 142.61608482 -64.68152746 142.22858873 -59.5 142.25 C-57.6746875 142.2809375 -57.6746875 142.2809375 -55.8125 142.3125 C-41.96337242 142.37168431 -32.29541316 140.12274066 -22.359375 130.421875 C-20.59173345 128.65423345 -18.83802154 126.87250218 -17.1015625 125.07421875 C-14.4123081 122.41995465 -13.61150191 122.03729297 -9.80541992 121.80517578 C-5.83386699 122.00850543 -2.85465931 122.79885441 0.88671875 124.1171875 C1.51101273 124.3344046 2.1353067 124.5516217 2.77851868 124.77542114 C4.75189214 125.46520238 6.71947807 126.17011624 8.6875 126.875 C10.01855314 127.34077946 11.3499312 127.80563149 12.68164062 128.26953125 C26.42650562 133.09564347 26.42650562 133.09564347 28.625 136.5625 C29.12164327 141.11506327 27.82928453 142.70942298 25.16796875 146.30859375 C9.13044057 166.21824585 -7.92774108 181.39663177 -34 186 C-37.00202021 186.27344154 -39.98271234 186.3272504 -42.99609375 186.3359375 C-43.82851089 186.3425943 -44.66092804 186.3492511 -45.51856995 186.35610962 C-47.27236753 186.36616943 -49.02620289 186.37092872 -50.7800293 186.37060547 C-53.40025875 186.37493842 -56.01874376 186.41121659 -58.63867188 186.44921875 C-76.46292444 186.56896445 -92.58166538 183.17357086 -108.375 174.8125 C-109.11524414 174.42102783 -109.85548828 174.02955566 -110.61816406 173.6262207 C-116.63948435 170.3581998 -121.85140218 166.51953981 -127 162 C-127.82242187 161.36835938 -128.64484375 160.73671875 -129.4921875 160.0859375 C-146.06446549 146.30151936 -153.09239703 126.13817873 -158 106 C-158.26804443 105.02921509 -158.26804443 105.02921509 -158.54150391 104.03881836 C-164.08703968 79.37919684 -158.06681147 50.08008153 -144.984375 28.70703125 C-143.07921343 26.04805575 -141.08599125 23.51870177 -139 21 C-138.02740234 19.72962891 -138.02740234 19.72962891 -137.03515625 18.43359375 C-121.54209119 -1.66137182 -101.84612223 -12.28500959 -77.28515625 -17.5859375 C-49.83302327 -21.04601609 -23.05325457 -15.25706302 0 0 Z " fill="#091362" transform="translate(1152,282)"/>
<path d="M0 0 C3.65309295 2.7433733 6.84642127 5.70149578 10 9 C10.680625 9.66128906 11.36125 10.32257813 12.0625 11.00390625 C18.60141972 17.73439588 22.91988362 25.63429375 27 34 C27.35578125 34.68320312 27.7115625 35.36640625 28.078125 36.0703125 C38.0368605 55.91346458 34 76.96967149 34 99 C-12.86 99 -59.72 99 -108 99 C-99.99994238 123.30605363 -99.99994238 123.30605363 -81.20703125 138.41796875 C-67.86836601 143.87559101 -51.20476903 144.2820529 -37.67578125 139.17578125 C-36.79277344 138.78777344 -35.90976563 138.39976562 -35 138 C-33.81470703 137.52626953 -33.81470703 137.52626953 -32.60546875 137.04296875 C-26.76248286 134.31078445 -22.97985064 130.02311001 -19.06787109 125.01367188 C-17.7734375 123.44921875 -17.7734375 123.44921875 -15 121 C-9.82397341 120.54254365 -5.77931375 121.45631533 -0.89453125 123.1171875 C-0.24804123 123.3344046 0.39844879 123.5516217 1.06452942 123.77542114 C2.41993231 124.23289919 3.77366183 124.69536293 5.12573242 125.16259766 C7.18908546 125.87554782 9.25694827 126.57382499 11.32617188 127.26953125 C25.3895665 132.03739333 25.3895665 132.03739333 27.625 135.5625 C28.12164327 140.11506327 26.82928453 141.70942298 24.16796875 145.30859375 C7.82976287 165.59151961 -10.19742941 181.70664181 -37.12915039 185.28271484 C-70.00726612 188.44385133 -105.02046535 181.19187722 -130.9921875 159.8203125 C-149.84727302 142.72601318 -159.49661074 117.91426696 -161.14038086 92.86035156 C-162.57597578 61.74266809 -152.39854624 33.81253989 -131.796875 10.5078125 C-118.61831767 -3.49985936 -101.46174808 -12.14164524 -83 -17 C-82.33081543 -17.17805176 -81.66163086 -17.35610352 -80.97216797 -17.53955078 C-53.67924893 -24.27401085 -23.14785483 -14.68822159 0 0 Z " fill="#091362" transform="translate(2301,283)"/>
<path d="M0 0 C2.45925435 1.91427235 4.80438896 3.93571157 7.125 6.01489258 C8.12273437 6.86760742 8.12273437 6.86760742 9.140625 7.73754883 C17.15856656 15.08732859 26.19204875 27.24744599 28.125 38.01489258 C27.67920435 41.73480243 26.95698184 45.36357433 26.125 49.01489258 C22.41719569 49.82981929 18.70866684 50.64140097 15 51.45239258 C13.95328125 51.68249023 12.9065625 51.91258789 11.828125 52.1496582 C-8.14532493 56.51094949 -8.14532493 56.51094949 -17.875 55.01489258 C-21.09641089 52.83097312 -22.87861646 50.31012805 -24.875 47.01489258 C-25.42671875 46.30848633 -25.9784375 45.60208008 -26.546875 44.87426758 C-27.875 43.01489258 -27.875 43.01489258 -27.875 41.01489258 C-28.865 40.68489258 -29.855 40.35489258 -30.875 40.01489258 C-31.865 38.90114258 -31.865 38.90114258 -32.875 37.76489258 C-39.99193834 30.68921185 -48.15338313 29.51068733 -57.8125 29.45239258 C-66.09142743 29.5574516 -73.32496391 30.38368475 -80.875 34.01489258 C-81.66648437 34.35391602 -82.45796875 34.69293945 -83.2734375 35.04223633 C-94.31302141 40.33596172 -101.16298097 51.07674313 -105.875 62.01489258 C-110.90344548 77.70566057 -109.58206746 98.04156372 -102.51953125 112.85864258 C-101.10461873 115.37741447 -99.58099553 117.68515534 -97.875 120.01489258 C-97.37355469 120.72129883 -96.87210938 121.42770508 -96.35546875 122.15551758 C-89.54756253 130.83518391 -79.46758324 135.62834869 -68.875 138.01489258 C-68.07707031 138.19536133 -67.27914063 138.37583008 -66.45703125 138.56176758 C-54.74856491 140.616506 -43.53228166 138.3741796 -33.25390625 132.52270508 C-29.42800987 129.81298764 -27.08952248 127.19787949 -24.875 123.01489258 C-24.215 123.01489258 -23.555 123.01489258 -22.875 123.01489258 C-22.606875 122.25176758 -22.33875 121.48864258 -22.0625 120.70239258 C-20.9114442 118.09737157 -20.07046244 116.77126253 -17.875 115.01489258 C-8.80724346 111.99230706 2.5402119 114.23240749 11.86816406 115.18676758 C13.91374439 115.39381415 15.9605048 115.58358855 18.0078125 115.77270508 C19.29945313 115.90161133 20.59109375 116.03051758 21.921875 116.16333008 C23.67516113 116.33614502 23.67516113 116.33614502 25.46386719 116.51245117 C26.78112793 116.76115967 26.78112793 116.76115967 28.125 117.01489258 C30.24160114 121.24809485 29.60570464 125.50647457 28.21875 129.85864258 C18.31683857 154.48647356 -0.15223859 170.993484 -24.1875 181.38989258 C-46.22411826 189.67087648 -69.48408259 188.22807908 -91.875 182.01489258 C-93.41414063 181.6359082 -93.41414063 181.6359082 -94.984375 181.24926758 C-108.7924333 177.54466657 -120.33911442 169.50042146 -130.875 160.01489258 C-131.71546875 159.26852539 -132.5559375 158.5221582 -133.421875 157.75317383 C-149.3796601 142.76177634 -157.92680711 123.45415129 -160.875 102.01489258 C-161.00519531 101.18344727 -161.13539062 100.35200195 -161.26953125 99.49536133 C-161.59805686 96.99418638 -161.76025045 94.53600772 -161.875 92.01489258 C-161.90754883 91.33507324 -161.94009766 90.65525391 -161.97363281 89.95483398 C-163.19543695 60.55131531 -154.12323583 36.81051836 -135.875 14.01489258 C-135.30007813 13.27110352 -134.72515625 12.52731445 -134.1328125 11.76098633 C-102.40039481 -27.31251307 -38.53625571 -28.15086268 0 0 Z " fill="#091362" transform="translate(1692.875,282.985107421875)"/>
<path d="M0 0 C1.05646729 0.33741211 1.05646729 0.33741211 2.13427734 0.68164062 C22.35477255 7.32270804 36.68775457 18.27907329 46.4375 37.5 C49.08882844 42.99048941 50.11597105 46.85353442 50 53 C41.57965381 55.33262479 33.30726992 56.76695806 24.625 57.6875 C23.48933594 57.81705078 22.35367188 57.94660156 21.18359375 58.08007812 C10.39041666 59.27580525 10.39041666 59.27580525 6 59 C3.875 56.76953125 3.875 56.76953125 2 53.8125 C-2.47857962 47.19236048 -6.95630363 42.1340419 -15 40 C-18.9955683 39.41790165 -22.96790114 39.17037037 -27 39 C-27.87269531 38.94714844 -28.74539063 38.89429688 -29.64453125 38.83984375 C-37.08637718 38.57029657 -43.82572219 39.86222107 -50.0625 44.0625 C-53.19625069 47.19625069 -53.23456232 49.40723496 -53.375 53.75 C-53.30769253 57.77883277 -53.13152542 59.74634384 -51.25 63.375 C-43.66983151 70.63117315 -32.39803349 73.30156988 -22.5 75.5625 C-21.27966064 75.85568115 -20.05932129 76.1488623 -18.80200195 76.45092773 C-15.20441939 77.31437588 -11.6031825 78.16026442 -8 79 C34.93189411 89.02420877 34.93189411 89.02420877 47 107 C55.76731121 121.7005381 57.09964364 136.92857315 53.09765625 153.55078125 C49.74503762 164.08587823 43.79370492 172.30167259 36 180 C35.38640625 180.63550781 34.7728125 181.27101563 34.140625 181.92578125 C16.53338805 198.89343908 -10.64945438 200.71036431 -33.74609375 200.3203125 C-42.44439404 200.00391399 -50.63863507 198.32569131 -59 196 C-60.70736328 195.54947266 -60.70736328 195.54947266 -62.44921875 195.08984375 C-69.79221988 192.91797018 -75.78817886 189.43166123 -82 185 C-82.78246094 184.44183594 -83.56492187 183.88367188 -84.37109375 183.30859375 C-96.75451117 174.05858871 -107.51323475 162.79688019 -110 147 C-110.03994503 145.00039894 -110.04961976 142.99938438 -110 141 C-97.40758162 138.24038491 -84.90993178 136.03243138 -72.03393555 135.14331055 C-70.23635188 135.01665329 -68.44341317 134.82744954 -66.65234375 134.62890625 C-64 135 -64 135 -62.05859375 137.23046875 C-61.52363281 138.20628906 -60.98867187 139.18210937 -60.4375 140.1875 C-55.61816279 148.40562742 -49.97314256 154.23200615 -40.6875 156.98046875 C-26.23575684 160.29751756 -12.12464956 159.73095796 1 152 C3.88180585 148.3776873 4.41000719 145.57427305 4.375 141 C4.38273437 139.989375 4.39046875 138.97875 4.3984375 137.9375 C3.93751559 134.53933062 3.0754298 132.71760315 1 130 C-11.40500004 121.06839997 -29.44673151 118.58103525 -44.1159668 115.44506836 C-52.69680272 113.59934469 -61.0013798 111.73156405 -69 108 C-69.6504126 107.70714111 -70.3008252 107.41428223 -70.97094727 107.11254883 C-83.11671431 101.4697517 -96.65219125 92.65675675 -101.91796875 79.75 C-102.70246249 77.51069394 -103.39981054 75.29531914 -104 73 C-104.2784375 71.93652344 -104.2784375 71.93652344 -104.5625 70.8515625 C-106.83599987 56.03321516 -106.13372209 39.09077157 -97.72265625 26.33984375 C-86.65819598 11.31124578 -68.21087832 -0.69202107 -49.50878906 -3.71875 C-32.99498422 -5.57004459 -15.87634805 -5.12910396 0 0 Z " fill="#091362" transform="translate(2069,269)"/>
<path d="M0 0 C2.13870239 -0.36076355 2.13870239 -0.36076355 4.81689453 -0.34057617 C5.81778107 -0.34034958 6.8186676 -0.34012299 7.84988403 -0.33988953 C9.47493362 -0.31666374 9.47493362 -0.31666374 11.1328125 -0.29296875 C12.79327103 -0.28660149 12.79327103 -0.28660149 14.48727417 -0.28010559 C18.0334271 -0.26327214 21.57901797 -0.2256108 25.125 -0.1875 C27.52473139 -0.17245922 29.92447167 -0.15876977 32.32421875 -0.14648438 C38.21633859 -0.11335338 44.10812915 -0.06310777 50 0 C50.02333722 25.1122607 50.04098324 50.22451978 50.05181217 75.33678913 C50.05697337 86.99625829 50.06401274 98.65572071 50.07543945 110.31518555 C50.08539164 120.47491513 50.09185471 130.63463984 50.09408849 140.79437417 C50.09539469 146.17625448 50.09847481 151.55812086 50.10573006 156.93999672 C50.11249868 162.00173581 50.11461523 167.06345517 50.11310768 172.12519836 C50.11338363 173.98644302 50.11538376 175.84768831 50.11920547 177.70892906 C50.12415584 180.2433806 50.12299327 182.77775692 50.12025452 185.31221008 C50.12316736 186.05442458 50.1260802 186.79663908 50.12908131 187.56134492 C50.12000526 190.65318136 49.98589673 193.04230981 49 196 C32.5 196 16 196 -1 196 C-2.51239935 192.97520129 -2.1407004 189.8464116 -2.13371277 186.52857971 C-2.13597833 185.74902906 -2.13824388 184.96947841 -2.14057809 184.16630501 C-2.14693569 181.53997301 -2.14608761 178.91369238 -2.14526367 176.28735352 C-2.14825405 174.41017591 -2.1516563 172.53299892 -2.15544128 170.65582275 C-2.16429747 165.54639529 -2.16662007 160.43698457 -2.16725707 155.32755017 C-2.16820482 151.06787816 -2.17188155 146.80821008 -2.17542917 142.54853958 C-2.18357976 132.50232841 -2.18601284 122.4561262 -2.18530273 112.40991211 C-2.18470167 102.03300422 -2.19525778 91.65614828 -2.2110464 81.27925354 C-2.22410392 72.38157295 -2.22948739 63.48390936 -2.22884732 54.58621925 C-2.22859182 49.26695459 -2.23147164 43.94773607 -2.24202538 38.62848091 C-2.25167641 33.6274288 -2.25180621 28.62646721 -2.24450874 23.62541199 C-2.24345918 21.78674119 -2.24584766 19.94806485 -2.2518692 18.10940361 C-2.25953981 15.60562913 -2.25497731 13.10217117 -2.24723816 10.59840393 C-2.25238172 9.86533557 -2.25752529 9.13226721 -2.26282471 8.37698466 C-2.23752553 4.69076307 -2.10313736 3.15470604 0 0 Z " fill="#081363" transform="translate(1453,268)"/>
<path d="M0 0 C10.92223152 8.57310412 18.1783985 23.51204722 20.76171875 36.9453125 C22.54222461 54.75037109 18.87473673 72.85128398 8.078125 87.37890625 C-1.04501098 98.26425763 -13.0147132 104.64751205 -27.1796875 106.015625 C-42.3529114 106.52422468 -55.38886123 101.7118307 -66.61328125 91.5078125 C-78.92128454 78.19867976 -83.19797672 59.82222371 -83.01171875 42.18359375 C-82.34969464 26.62602716 -75.31815981 12.5104688 -64.05078125 1.8203125 C-45.84510892 -13.01393903 -18.87799776 -13.21855609 0 0 Z " fill="#F9FAFB" transform="translate(1872.86328125,319.3046875)"/>
<path d="M0 0 C1.010625 0.721875 2.02125 1.44375 3.0625 2.1875 C12.73122956 10.6771162 19.09322781 24.30518935 20 37 C21.07070978 55.45782284 18.58203806 73.20978512 7.23828125 88.3515625 C5.58516766 90.10101138 3.92019362 91.55164883 2 93 C1.33484375 93.52722656 0.6696875 94.05445313 -0.015625 94.59765625 C-11.24104276 102.81482357 -24.41725251 104.78952461 -38 104 C-49.81420249 102.16810001 -60.52317836 96.35749457 -68 87 C-80.21427011 69.6983183 -84.11806237 50.82570709 -81 30 C-78.42850788 18.00902046 -71.76343123 6.56252216 -62 -1 C-42.953053 -12.40277227 -18.44612574 -13.77084042 0 0 Z " fill="#FBFBFB" transform="translate(1342,321)"/>
<path d="M0 0 C7.55731073 6.5488593 14.61737299 15.46185657 16.75 25.4375 C16.75 28.7375 16.75 32.0375 16.75 35.4375 C-12.95 35.4375 -42.65 35.4375 -73.25 35.4375 C-71.86133838 21.55088381 -68.76604596 11.8913191 -58.25 2.4375 C-42.21947623 -10.22474251 -16.65225895 -12.3059941 0 0 Z " fill="#F7F7F9" transform="translate(1120.25,312.5625)"/>
<path d="M0 0 C3.76202643 2.65679832 6.89074736 5.61107913 10 9 C10.65871094 9.71414063 11.31742188 10.42828125 11.99609375 11.1640625 C19.27907728 19.77834409 22 27.73444919 22 39 C-7.7 39 -37.4 39 -68 39 C-66.56603507 27.52828057 -63.74197262 19.59879173 -56 11 C-55.30648437 10.21367187 -54.61296875 9.42734375 -53.8984375 8.6171875 C-40.55228187 -5.67215934 -17.5864257 -9.03611928 0 0 Z " fill="#FAFAFB" transform="translate(2263,309)"/>
<path d="M0 0 C5.64968694 4.44524819 10.36255255 9.67393582 11.57421875 16.91796875 C11.93877771 26.10282927 10.21897814 34.60936398 4.23046875 41.80859375 C2.26210354 43.66279378 0.28653344 45.1657152 -1.97265625 46.6484375 C-2.60558594 47.08027344 -3.23851562 47.51210937 -3.890625 47.95703125 C-11.05267947 51.96057814 -20.02596059 51.74167549 -27.97265625 50.6484375 C-34.83291451 48.67840145 -40.82993445 44.4834117 -44.97265625 38.6484375 C-50.01451299 28.908827 -50.02825914 19.96109726 -46.97265625 9.6484375 C-46.31265625 9.6484375 -45.65265625 9.6484375 -44.97265625 9.6484375 C-44.72515625 9.0915625 -44.47765625 8.5346875 -44.22265625 7.9609375 C-40.46796986 1.01476768 -35.22941462 -2.37134673 -27.9609375 -5.109375 C-17.22343159 -8.20212518 -9.10287177 -6.23681907 0 0 Z " fill="#0B1461" transform="translate(1497.97265625,193.3515625)"/>
<path d="M0 0 C0.99450668 -0.00315216 1.98901337 -0.00630432 3.01365662 -0.009552 C4.09591019 -0.00752777 5.17816376 -0.00550354 6.29321289 -0.00341797 C7.94867882 -0.00485306 7.94867882 -0.00485306 9.6375885 -0.00631714 C11.97714291 -0.00699919 14.3166992 -0.00514317 16.65625 -0.00097656 C20.24686928 0.00436626 23.83736318 -0.00091813 27.42797852 -0.00732422 C29.69555692 -0.00666334 31.96313524 -0.00538198 34.23071289 -0.00341797 C35.31094223 -0.0054422 36.39117157 -0.00746643 37.50413513 -0.009552 C38.50179398 -0.00639984 39.49945282 -0.00324768 40.52734375 0 C41.84852455 0.00119339 41.84852455 0.00119339 43.19639587 0.00241089 C45.32836914 0.12939453 45.32836914 0.12939453 47.32836914 1.12939453 C47.32836914 90.22939453 47.32836914 179.32939453 47.32836914 271.12939453 C46.66836914 270.79939453 46.00836914 270.46939453 45.32836914 270.12939453 C45.32836914 214.68939453 45.32836914 159.24939453 45.32836914 102.12939453 C44.66836914 102.12939453 44.00836914 102.12939453 43.32836914 102.12939453 C43.32836914 69.78939453 43.32836914 37.44939453 43.32836914 4.12939453 C28.14836914 4.12939453 12.96836914 4.12939453 -2.67163086 4.12939453 C-2.67163086 35.80939453 -2.67163086 67.48939453 -2.67163086 100.12939453 C-3.33163086 100.12939453 -3.99163086 100.12939453 -4.67163086 100.12939453 C-4.82519412 87.23873175 -4.9733759 74.34801959 -5.11459446 61.45721531 C-5.1803316 55.47217472 -5.24795653 49.48716763 -5.31982422 43.50219727 C-5.38904939 37.73160457 -5.45340925 31.96097663 -5.5143261 26.19029045 C-5.53849178 23.98334707 -5.56444177 21.77642251 -5.59216499 19.56952095 C-5.6305522 16.48998081 -5.66272241 13.41043613 -5.69335938 10.33081055 C-5.70630539 9.40868271 -5.7192514 8.48655487 -5.73258972 7.53648376 C-5.75060841 5.4007667 -5.716934 3.26470708 -5.67163086 1.12939453 C-4.04639345 -0.49584288 -2.24354922 0.00202837 0 0 Z " fill="#292E6D" transform="translate(1363.671630859375,191.87060546875)"/>
<path d="M0 0 C1.91091919 -0.36076355 1.91091919 -0.36076355 4.26611328 -0.34057617 C5.14687531 -0.34034958 6.02763733 -0.34012299 6.93508911 -0.33988953 C7.88721283 -0.32440567 8.83933655 -0.30892181 9.8203125 -0.29296875 C10.79410858 -0.28872391 11.76790466 -0.28447906 12.77120972 -0.28010559 C15.88941805 -0.26327786 19.00698617 -0.22561811 22.125 -0.1875 C24.23566777 -0.17245846 26.34634564 -0.15876914 28.45703125 -0.14648438 C33.63824023 -0.11336109 38.81907439 -0.06312151 44 0 C43.67 1.32 43.34 2.64 43 4 C29.47 4 15.94 4 2 4 C2 66.7 2 129.4 2 194 C17.18 194 32.36 194 48 194 C48.33 194.66 48.66 195.32 49 196 C32.5 196 16 196 -1 196 C-2.51239935 192.97520129 -2.1407004 189.8464116 -2.13371277 186.52857971 C-2.13597833 185.74902906 -2.13824388 184.96947841 -2.14057809 184.16630501 C-2.14693569 181.53997301 -2.14608761 178.91369238 -2.14526367 176.28735352 C-2.14825405 174.41017591 -2.1516563 172.53299892 -2.15544128 170.65582275 C-2.16429747 165.54639529 -2.16662007 160.43698457 -2.16725707 155.32755017 C-2.16820482 151.06787816 -2.17188155 146.80821008 -2.17542917 142.54853958 C-2.18357976 132.50232841 -2.18601284 122.4561262 -2.18530273 112.40991211 C-2.18470167 102.03300422 -2.19525778 91.65614828 -2.2110464 81.27925354 C-2.22410392 72.38157295 -2.22948739 63.48390936 -2.22884732 54.58621925 C-2.22859182 49.26695459 -2.23147164 43.94773607 -2.24202538 38.62848091 C-2.25167641 33.6274288 -2.25180621 28.62646721 -2.24450874 23.62541199 C-2.24345918 21.78674119 -2.24584766 19.94806485 -2.2518692 18.10940361 C-2.25953981 15.60562913 -2.25497731 13.10217117 -2.24723816 10.59840393 C-2.25238172 9.86533557 -2.25752529 9.13226721 -2.26282471 8.37698466 C-2.23752553 4.69076307 -2.10313736 3.15470604 0 0 Z " fill="#282C68" transform="translate(1453,268)"/>
<path d="M0 0 C0.66 0 1.32 0 2 0 C2.04667686 15.61150446 2.08196762 31.22299016 2.10362434 46.83454704 C2.11394625 54.08291834 2.12802399 61.33124634 2.15087891 68.57958984 C2.17078487 74.89568298 2.18370978 81.21174476 2.18817699 87.52786839 C2.19078913 90.87362811 2.19694761 94.21929812 2.21146011 97.56502914 C2.22589039 101.29584923 2.22798149 105.02648091 2.22705078 108.75732422 C2.23424133 109.87222229 2.24143188 110.98712036 2.24884033 112.13580322 C2.246091 113.14825104 2.24334167 114.16069885 2.24050903 115.2038269 C2.24235262 116.08690458 2.24419621 116.96998226 2.24609566 117.87981987 C2 120 2 120 0 122 C-2.02481079 122.24050903 -2.02481079 122.24050903 -4.54150391 122.22705078 C-5.48232819 122.22689972 -6.42315247 122.22674866 -7.39248657 122.22659302 C-8.41023163 122.21627045 -9.42797668 122.20594788 -10.4765625 122.1953125 C-11.51694672 122.1924826 -12.55733093 122.18965271 -13.62924194 122.18673706 C-16.96127694 122.17551704 -20.29304586 122.15040915 -23.625 122.125 C-25.88020446 122.11497256 -28.13541312 122.1058463 -30.390625 122.09765625 C-35.92717454 122.07557178 -41.46356827 122.04207639 -47 122 C-48.21047233 119.57905534 -48.12317555 118.06055681 -48.12025452 115.35568237 C-48.12162918 114.37689117 -48.12300385 113.39809998 -48.12442017 112.38964844 C-48.12082489 111.31215332 -48.11722961 110.2346582 -48.11352539 109.12451172 C-48.11367142 107.99280548 -48.11381744 106.86109924 -48.1139679 105.69509888 C-48.11326907 101.93994251 -48.10547807 98.18483524 -48.09765625 94.4296875 C-48.09579196 91.83179756 -48.09436811 89.23390726 -48.09336853 86.63601685 C-48.08993546 80.48786217 -48.0820473 74.33972787 -48.07201904 68.19158089 C-48.06085067 61.19287932 -48.05534562 54.19417692 -48.05032361 47.19546866 C-48.0398645 32.79696958 -48.02226956 18.39848542 -48 4 C-47.34 4 -46.68 4 -46 4 C-46 41.62 -46 79.24 -46 118 C-31.48 118 -16.96 118 -2 118 C-2.01571045 112.90461792 -2.01571045 112.90461792 -2.03173828 107.70629883 C-2.06485834 96.49052897 -2.08706367 85.27475532 -2.10362434 74.05894947 C-2.11393343 67.2579429 -2.12798673 60.45698268 -2.15087891 53.65600586 C-2.17295508 47.09432262 -2.18456472 40.53267493 -2.18975449 33.97095299 C-2.1934536 31.4658908 -2.2006769 28.96083128 -2.21146011 26.45578957 C-2.22594989 22.95069273 -2.22797897 19.44579573 -2.22705078 15.94067383 C-2.23424133 14.90201675 -2.24143188 13.86335968 -2.24884033 12.79322815 C-2.246091 11.83555542 -2.24334167 10.87788269 -2.24050903 9.89118958 C-2.24235262 9.06249768 -2.24419621 8.23380579 -2.24609566 7.38000202 C-1.96322808 4.64437713 -1.12169423 2.49889734 0 0 Z " fill="#06094F" transform="translate(829,342)"/>
<path d="M0 0 C3.0843511 2.24316444 3.85389683 4.99450681 4.64916992 8.62631226 C5.3277659 13.2176374 5.22104828 17.79478957 5.15625 22.42578125 C5.14815308 23.57911453 5.14005615 24.73244781 5.13171387 25.92073059 C5.10529974 29.21590629 5.06869951 32.51067203 5.02697754 35.80567169 C4.99881986 38.0959918 4.97407101 40.38632817 4.95019531 42.67669678 C4.83244783 53.94319606 4.68875841 65.20926297 4.53643799 76.4753418 C4.4638833 81.8757439 4.39402387 87.27618153 4.32368469 92.67661285 C4.21779464 100.78443676 4.10859513 108.89220985 4 117 C17.86 117 31.72 117 46 117 C46 117.66 46 118.32 46 119 C39.62581723 119.89660491 33.30459922 120.30348645 26.875 120.5625 C25.86687256 120.6049585 24.85874512 120.64741699 23.82006836 120.69116211 C16.20832738 120.99392604 8.61798182 121.11882467 1 121 C-0.50063501 117.99872998 -0.38159995 114.85540904 -0.5546875 111.5546875 C-0.59673309 110.76569061 -0.63877869 109.97669373 -0.68209839 109.16378784 C-1.23672511 97.49185291 -1.14914294 85.80697276 -1.125 74.125 C-1.12411377 72.89129669 -1.12322754 71.65759338 -1.12231445 70.38650513 C-1.10263114 46.91472063 -0.68707542 23.46106729 0 0 Z " fill="#202568" transform="translate(913,343)"/>
<path d="M0 0 C0.66 0 1.32 0 2 0 C2.15374614 22.01755439 2.30178349 44.0351405 2.4429636 66.0527792 C2.50864527 76.27519675 2.57621812 86.49759536 2.64819336 96.7199707 C2.71089838 105.62640568 2.77010579 114.53285575 2.82505554 123.43934208 C2.85429348 128.15830343 2.88532186 132.87723812 2.92053413 137.59615898 C2.95358219 142.03243588 2.98197444 146.46871755 3.00670624 150.90504837 C3.01664769 152.53816059 3.02832937 154.17126323 3.04183006 155.8043499 C3.05992806 158.02418515 3.07191649 160.24396919 3.08229065 162.46385193 C3.09058679 163.70919425 3.09888292 164.95453657 3.10743046 166.23761654 C3 169 3 169 2 170 C0.56809139 170.10331927 -0.86882803 170.13849886 -2.30444336 170.14526367 C-3.21886703 170.15164352 -4.13329071 170.15802338 -5.07542419 170.16459656 C-6.56756187 170.16626579 -6.56756187 170.16626579 -8.08984375 170.16796875 C-9.10470352 170.17129715 -10.11956329 170.17462555 -11.16517639 170.17805481 C-13.3164118 170.1831285 -15.4676551 170.185463 -17.61889648 170.18530273 C-20.91989036 170.18748834 -24.22054975 170.20563707 -27.52148438 170.22460938 C-29.60676968 170.22754331 -31.69205659 170.2295281 -33.77734375 170.23046875 C-34.77007797 170.23765427 -35.76281219 170.24483978 -36.78562927 170.25224304 C-38.16199303 170.2476281 -38.16199303 170.2476281 -39.56616211 170.24291992 C-40.37588974 170.24434494 -41.18561737 170.24576996 -42.0198822 170.24723816 C-44 170 -44 170 -46 168 C-46.2526603 165.16197848 -46.37028432 162.46384221 -46.375 159.625 C-46.39949219 158.85671875 -46.42398437 158.0884375 -46.44921875 157.296875 C-46.45308594 156.55179688 -46.45695312 155.80671875 -46.4609375 155.0390625 C-46.46915527 154.36053223 -46.47737305 153.68200195 -46.48583984 152.98291016 C-46 151 -46 151 -42 147 C-42 153.27 -42 159.54 -42 166 C-28.14 166 -14.28 166 0 166 C0 111.22 0 56.44 0 0 Z " fill="#000148" transform="translate(1407,294)"/>
<path d="M0 0 C0.99 0.33 1.98 0.66 3 1 C3.495 3.97 3.495 3.97 4 7 C-25.7 7 -55.4 7 -86 7 C-85.67 5.68 -85.34 4.36 -85 3 C-85 3.66 -85 4.32 -85 5 C-83.90864746 4.93216309 -82.81729492 4.86432617 -81.69287109 4.79443359 C-71.24523898 4.18844014 -60.81615553 3.89540965 -50.3515625 3.7890625 C-49.07408142 3.7747821 -47.79660034 3.76050171 -46.48040771 3.74578857 C-41.17416166 3.68800686 -35.86798702 3.63158035 -30.56152344 3.59863281 C-26.63715044 3.57365948 -22.71321377 3.5253295 -18.7890625 3.4765625 C-17.59221832 3.47330963 -16.39537415 3.47005676 -15.16226196 3.46670532 C-9.23702657 3.37876526 -5.21650289 3.07486768 0 0 Z " fill="#E1E3EC" transform="translate(2281,341)"/>
<path d="M0 0 C0.66 0 1.32 0 2 0 C2.48220263 1.87422152 2.96061833 3.74941754 3.4375 5.625 C3.70433594 6.66914063 3.97117187 7.71328125 4.24609375 8.7890625 C5.64855736 14.7622495 6.13425654 20.27017467 6.0625 26.375 C6.05798828 27.11105469 6.05347656 27.84710938 6.04882812 28.60546875 C6.03715142 30.40368158 6.01922011 32.20185197 6 34 C4.02 34 2.04 34 0 34 C-1.40027356 10.21122564 -1.40027356 10.21122564 0 0 Z " fill="#1E256D" transform="translate(993,350)"/>
<path d="M0 0 C1.36125 0.37125 1.36125 0.37125 2.75 0.75 C2.75 3.75 2.75 3.75 1.28125 5.328125 C0.6109375 5.87984375 -0.059375 6.4315625 -0.75 7 C-1.83474609 7.90685547 -1.83474609 7.90685547 -2.94140625 8.83203125 C-3.70324219 9.46496094 -4.46507812 10.09789062 -5.25 10.75 C-6.73207818 12.05921143 -8.21139827 13.37155397 -9.6875 14.6875 C-13.12692308 17.75 -13.12692308 17.75 -14.25 17.75 C-14.81981968 14.49388752 -14.74365847 12.45988904 -12.83203125 9.7109375 C-11.02997037 7.65912405 -9.15984916 5.70127756 -7.25 3.75 C-6.569375 2.904375 -5.88875 2.05875 -5.1875 1.1875 C-3.25 -0.25 -3.25 -0.25 0 0 Z " fill="#040955" transform="translate(1031.25,286.25)"/>
<path d="M0 0 C6.42462923 0 11.20120902 2.82671335 16 7 C17.26171875 9.19921875 17.26171875 9.19921875 18 11 C14.8125 11.3125 14.8125 11.3125 11 11 C8.5625 8.75 8.5625 8.75 6 6 C3.41270064 4.48347434 0.73946051 3.21678271 -2 2 C-1.34 1.34 -0.68 0.68 0 0 Z " fill="#1E2365" transform="translate(1652,313)"/>
</svg>
