<?xml version="1.0" encoding="UTF-8"?>
<svg version="1.1" xmlns="http://www.w3.org/2000/svg" width="950" height="1258">
<path d="M0 0 C313.5 0 627 0 950 0 C950 415.14 950 830.28 950 1258 C636.5 1258 323 1258 0 1258 C0 842.86 0 427.72 0 0 Z " fill="#687AEE" transform="translate(0,0)"/>
<path d="M0 0 C313.5 0 627 0 950 0 C950 415.14 950 830.28 950 1258 C636.5 1258 323 1258 0 1258 C0 842.86 0 427.72 0 0 Z M119 99 C118.21753906 99.72960937 117.43507812 100.45921875 116.62890625 101.2109375 C110.4942872 107.09404811 105.35314233 113.65243839 100.21875 120.40087891 C99.14499095 121.80975747 98.05788555 123.20844296 96.96875 124.60546875 C94.04905211 127.92338639 94.04905211 127.92338639 93 132 C92.34 132 91.68 132 91 132 C90.44183594 133.12792969 89.88367188 134.25585938 89.30859375 135.41796875 C87.37947359 139.27705778 85.37524001 143.09150308 83.34643555 146.89892578 C76.36428704 160.02414352 70.89367227 172.64020866 67 187 C66.78311523 187.77520996 66.56623047 188.55041992 66.34277344 189.34912109 C56.82724566 223.5223383 56.84573371 259.29791625 56.85955811 294.51655579 C56.85696708 297.20184642 56.85398958 299.8871342 56.8505547 302.57242364 C56.84306589 309.11849357 56.84078637 315.66455532 56.84022565 322.21062909 C56.83930287 330.06736472 56.83260883 337.92409304 56.82587883 345.78082547 C56.80991174 364.75454652 56.80392672 383.72826667 56.79913008 402.70199323 C56.79678534 411.69503998 56.79318183 420.6880861 56.7894347 429.68113235 C56.77660907 460.52701336 56.76588779 491.37289404 56.7624321 522.21877766 C56.76221047 524.15054359 56.76198869 526.08230953 56.76176675 528.01407547 C56.76154611 529.9502038 56.76132563 531.88633214 56.7611053 533.82246047 C56.76066278 537.70594045 56.76021565 541.58942042 56.75976562 545.47290039 C56.75965623 546.43575834 56.75954684 547.3986163 56.75943414 548.39065176 C56.75580536 579.59513393 56.73988699 610.79959285 56.71657526 642.00406613 C56.69191396 675.07607396 56.67825641 708.14806851 56.67706418 741.2200858 C56.67689275 744.85846182 56.67667734 748.49683784 56.67642975 752.13521385 C56.67637398 753.03093823 56.67631821 753.9266626 56.67626075 754.84953014 C56.67511601 769.18745251 56.66414388 783.52535074 56.64954269 797.863265 C56.63509256 812.30367983 56.6319884 826.74406413 56.63998267 841.18448422 C56.64401388 848.98844775 56.64340333 856.79233748 56.62892532 864.59629059 C56.50110879 936.72477787 57.88978246 1009.74358156 111 1065 C120.33426183 1074.20112197 131.35026535 1082.16501257 144 1086 C144.07089844 1086.78761719 144.14179688 1087.57523438 144.21484375 1088.38671875 C144.70934044 1091.13335973 144.70934044 1091.13335973 146.94140625 1092.08203125 C147.80636719 1092.32308594 148.67132813 1092.56414062 149.5625 1092.8125 C154.6092441 1094.41857898 159.0808148 1096.48859111 163.75 1098.9375 C181.07818065 1107.81047407 200.30099015 1111.80419837 219.4375 1114.75 C220.1802417 1114.86553223 220.9229834 1114.98106445 221.68823242 1115.10009766 C237.77155018 1117.40495933 253.97203058 1117.14345794 270.17724609 1117.12939453 C272.81334553 1117.13075202 275.44944217 1117.13249866 278.08554077 1117.13470459 C284.49217865 1117.13913519 290.89880476 1117.13819467 297.30544309 1117.13529195 C302.56128172 1117.13301269 307.8171171 1117.13273624 313.07295609 1117.13381577 C314.20534086 1117.13404561 314.20534086 1117.13404561 315.36060209 1117.13428011 C316.89626299 1117.13459997 318.4319239 1117.13492419 319.9675848 1117.1352527 C334.37347285 1117.13810334 348.77935454 1117.13483447 363.18524154 1117.12945233 C375.3323193 1117.12505186 387.47938729 1117.12575071 399.62646484 1117.13037109 C482.29076211 1117.16095006 564.93923083 1117.00226474 694.25 1111.4375 C695.30864258 1111.17283936 696.36728516 1110.90817871 697.45800781 1110.63549805 C721.05302342 1104.51061641 743.88448369 1094.27653543 763 1079 C763.5779834 1078.54012695 764.1559668 1078.08025391 764.75146484 1077.60644531 C809.31281561 1041.7290318 830.5408635 990.01570742 836.66832282 934.22107092 C838.71106574 914.38304683 839.29005856 894.6131486 839.24723816 874.68438721 C839.24771848 871.94925392 839.25121753 869.21412618 839.25455457 866.47899508 C839.26017416 860.58925217 839.25855581 854.69954812 839.2518692 848.80980682 C839.24195376 840.05146551 839.24370871 831.29315201 839.2476195 822.53480731 C839.25386206 807.78963007 839.25076064 793.04446892 839.24202538 778.29929352 C839.23338362 763.70830384 839.22850586 749.11732139 839.22869301 734.52632904 C839.22870065 733.61558687 839.2287083 732.7048447 839.22871618 731.76650429 C839.22875709 728.06889575 839.22882271 724.37128722 839.22892199 720.67367868 C839.2298261 686.05739306 839.21991195 651.44111842 839.20449232 616.82483661 C839.19085675 586.1003452 839.18463172 555.37586159 839.18530273 524.65136719 C839.18534315 522.67660519 839.18538351 520.7018432 839.18542381 518.72708121 C839.18544416 517.7507715 839.18546452 516.77446179 839.18548548 515.76856694 C839.18558629 510.85347929 839.18567687 505.93839164 839.18575573 501.02330399 C839.1857808 499.56864246 839.1857808 499.56864246 839.18580638 498.08459383 C839.18617176 472.36586094 839.18163093 446.64712902 839.17542917 420.92839694 C839.17509876 419.55574627 839.17509876 419.55574627 839.17476168 418.15536528 C839.17387351 414.47600357 839.1729851 410.79664185 839.17207072 407.11728014 C839.16891613 394.33869451 839.16740216 381.56010963 839.16695923 368.78152363 C839.16636141 352.32020947 839.16235205 335.85890173 839.15252777 319.39759031 C839.14742617 310.70029864 839.14499894 302.00301638 839.14652396 293.30572329 C839.14726136 287.48892121 839.14433265 281.67212824 839.13848015 275.85532908 C839.13524805 272.54664505 839.13407523 269.23799683 839.13624074 265.92930952 C839.14661131 248.1067471 838.9821809 230.6661638 835.875 213.0625 C835.54786011 211.20359131 835.54786011 211.20359131 835.21411133 209.30712891 C826.44923396 161.55576018 806.1726261 124.00271114 767 95 C766.34435059 94.51450684 765.68870117 94.02901367 765.01318359 93.52880859 C755.08113655 86.22838982 744.95799881 79.65583045 734 74 C733.37383789 73.67660645 732.74767578 73.35321289 732.10253906 73.02001953 C715.8192578 64.74275553 699.00543506 60.64154026 681 58 C679.89015999 57.83031236 678.78031998 57.66062471 677.63684845 57.48579502 C662.60145286 55.49503709 647.51376868 55.69598095 632.37825155 55.69798481 C628.24713528 55.69632915 624.1160526 55.68316726 619.98495483 55.67144775 C612.84148795 55.65267981 605.69803789 55.64090283 598.55455017 55.63390923 C588.19828364 55.6236744 577.8420676 55.6015664 567.48582751 55.57652331 C550.64127851 55.53602002 533.79672462 55.50352647 516.95214844 55.47680664 C515.94635728 55.47520934 514.94056613 55.47361204 513.90429646 55.47196633 C512.39385428 55.46956798 512.39385428 55.46956798 510.85289812 55.46712118 C496.59886792 55.44446528 482.34484297 55.41982106 468.09082031 55.39282227 C467.08869733 55.39092612 466.08657435 55.38902997 465.054084 55.38707637 C448.27721739 55.35517276 431.50036018 55.31940992 414.7235055 55.28178078 C404.40861518 55.25889504 394.09373111 55.23988757 383.77882451 55.22611404 C376.69578595 55.21650174 369.61275816 55.20362246 362.52972966 55.18830519 C358.45964651 55.17964197 354.38957646 55.1724831 350.31948471 55.16966438 C332.69523566 55.15647511 315.11517967 54.90287056 297.50534689 54.10286456 C292.09618337 53.88077506 286.68680724 53.83809433 281.2734375 53.83203125 C279.582827 53.82703865 279.582827 53.82703865 277.85806274 53.82194519 C275.52484534 53.8169821 273.19162112 53.81453346 270.85839844 53.81469727 C267.36901894 53.81249623 263.87994982 53.79418455 260.390625 53.77539062 C208.36234207 53.64410467 157.78221692 61.97818632 119 99 Z " fill="#FCFCFC" transform="translate(0,0)"/>
<path d="M0 0 C0.91852753 -0.0049649 1.83705505 -0.00992981 2.78341675 -0.01504517 C5.78807351 -0.02951598 8.79267757 -0.03644205 11.79736328 -0.04199219 C13.34982946 -0.04623325 13.34982946 -0.04623325 14.9336586 -0.05056 C20.40694682 -0.0654884 25.88020909 -0.07475893 31.35351562 -0.07910156 C36.97734422 -0.08458822 42.60093098 -0.10863885 48.22468376 -0.13707352 C52.57781656 -0.15577805 56.93089186 -0.16090957 61.28406143 -0.16243744 C63.3563075 -0.16544498 65.42855301 -0.1734085 67.50075912 -0.18662262 C82.28846404 -0.27422223 95.09832912 -0.30072764 107.24267578 9.16113281 C108.23267578 9.86238281 109.22267578 10.56363281 110.24267578 11.28613281 C124.81923482 23.95964109 130.90881737 42.64183934 133.24267578 61.16113281 C133.37970357 63.68240805 133.47647011 66.20606613 133.54150391 68.73022461 C133.56094055 69.45764421 133.5803772 70.18506382 133.60040283 70.93452644 C133.66301158 73.3472087 133.71886256 75.75998601 133.77392578 78.17285156 C133.79446518 79.0186698 133.81500458 79.86448803 133.83616638 80.73593712 C134.39486358 103.81668793 134.56917229 126.90248901 134.76873779 149.98852539 C132.58751083 201.67372915 132.58751083 201.67372915 139.24267578 252.16113281 C156.6635269 253.27964737 174.10021743 253.47647559 191.5496254 253.73075485 C196.97505977 253.81016691 202.40035856 253.89710706 207.82565308 253.98550415 C209.69698511 254.01590584 211.56831728 254.04629938 213.43964958 254.07668495 C214.84351689 254.09948363 214.84351689 254.09948363 216.27574515 254.12274289 C228.87055081 254.32666091 241.46542921 254.52432856 254.06054688 254.70800781 C262.60821587 254.83272201 271.15567345 254.96720049 279.70301902 255.1124388 C284.20471454 255.18852798 288.70636372 255.25980991 293.2083168 255.31892014 C297.44244794 255.37454639 301.67618553 255.44310414 305.90996552 255.52089882 C307.4471787 255.54694986 308.98447658 255.56853052 310.52182388 255.5848484 C331.70184748 255.81676143 354.49931799 258.56482497 370.77001953 273.47753906 C388.8285047 293.07655851 390.72596556 318.60622851 390.64111328 343.95800781 C390.6431414 346.12542824 390.64605891 348.29284799 390.64981079 350.46026611 C390.65420325 354.97846037 390.64790576 359.49647525 390.63378906 364.01464844 C390.61674067 369.7439245 390.62653092 375.47277738 390.64450645 381.20203781 C390.65546354 385.67221128 390.65184329 390.14228817 390.64412308 394.6124649 C390.64215166 396.72191673 390.6444698 398.83137796 390.65156174 400.94081879 C390.71368522 424.61156405 389.8263954 447.93613437 373.99267578 466.84863281 C370.03154921 470.17958016 365.77825038 472.68658632 361.24267578 475.16113281 C360.46537109 475.59554688 359.68806641 476.02996094 358.88720703 476.47753906 C341.60495521 485.24230588 321.64713267 486.29298402 302.66064453 486.71972656 C301.75850912 486.74078398 300.85637371 486.76184139 299.92690086 486.78353691 C270.85189846 487.43893613 241.76327765 487.27527338 212.68279064 487.23316038 C204.65059917 487.22173502 196.61840658 487.21642288 188.58620894 487.21145642 C172.13835502 487.20115794 155.69051755 487.18370875 139.24267578 487.16113281 C139.24489639 488.16778488 139.247117 489.17443695 139.24940491 490.21159363 C139.34295208 534.10941485 139.41173189 578.00613045 138.83695602 621.90112686 C138.80545659 624.32700666 138.77541047 626.75290096 138.74563599 629.17880249 C137.9075893 696.36744152 137.9075893 696.36744152 123.24267578 713.16113281 C122.56205078 713.99644531 121.88142578 714.83175781 121.18017578 715.69238281 C109.9464803 729.01233603 95.18150641 734.67306273 78.24267578 737.16113281 C74.7506489 737.44735212 71.27267358 737.53016715 67.77001953 737.57519531 C66.78857468 737.59474274 65.80712982 737.61429016 64.79594421 737.63442993 C61.59077205 737.69498387 58.38560686 737.74152123 55.18017578 737.78613281 C52.93131346 737.8221632 50.68245281 737.85829773 48.43359375 737.89453125 C42.55923449 737.98421137 36.68480166 738.05660847 30.81011963 738.12145996 C27.26595281 738.16087395 23.72185158 738.20442659 20.17773438 738.24804688 C14.49143511 738.31473974 8.80528839 738.36081644 3.11868286 738.39129639 C0.97336373 738.40438632 -1.17193234 738.42223009 -3.31716919 738.44512939 C-26.24956976 738.67371624 -43.40947587 734.44477077 -61.75732422 720.16113281 C-62.50884766 719.67 -63.26037109 719.17886719 -64.03466797 718.67285156 C-71.32757942 713.85165312 -74.5424145 706.46704426 -76.75732422 698.16113281 C-77.81169488 692.06893501 -78.0658124 686.00945301 -78.28857422 679.83691406 C-78.35087219 678.18445427 -78.35087219 678.18445427 -78.41442871 676.49861145 C-78.80627942 665.6390585 -79.03471171 654.77874169 -79.20205688 643.91366577 C-79.25972526 640.19375283 -79.32337454 636.47396651 -79.38696289 632.75415039 C-79.6610863 616.13128104 -79.80129117 599.50951867 -79.88405228 582.88463402 C-79.91978464 576.10121517 -79.96539059 569.31785244 -80.01040077 562.53448963 C-80.05360808 555.79391287 -80.07896602 549.05355573 -80.09172535 542.31285667 C-80.10391032 538.0405041 -80.1324972 533.76836528 -80.1650753 529.49612427 C-80.17689187 527.50245017 -80.18198949 525.50872237 -80.179636 523.51501465 C-80.16934488 511.46107564 -81.17168476 500.70237183 -84.75732422 489.16113281 C-126.41488931 487.77889716 -168.05738153 486.87797482 -209.73657227 486.50317383 C-225.78942197 486.3570111 -241.84160839 486.18100667 -257.89115906 485.81382942 C-259.49600894 485.77792106 -261.10092062 485.74464912 -262.70588684 485.71438408 C-272.86422029 485.51815103 -282.71136699 484.72858835 -292.75732422 483.16113281 C-292.75732422 481.18113281 -292.75732422 479.20113281 -292.75732422 477.16113281 C-293.60294922 477.05800781 -294.44857422 476.95488281 -295.31982422 476.84863281 C-299.17175123 476.07824741 -302.19807453 474.79838767 -305.75732422 473.16113281 C-305.75732422 472.50113281 -305.75732422 471.84113281 -305.75732422 471.16113281 C-306.48177734 471.06960938 -307.20623047 470.97808594 -307.95263672 470.88378906 C-316.7713239 468.61156465 -324.61770651 459.11801692 -329.34326172 451.65722656 C-336.68223314 438.26453506 -339.90019151 422.32362524 -339.91845703 407.17114258 C-339.92342194 406.17998947 -339.92838684 405.18883636 -339.9335022 404.16764832 C-339.94807742 400.89593808 -339.95492004 397.62427641 -339.96044922 394.35253906 C-339.96620686 392.06534322 -339.97196451 389.77814738 -339.97772217 387.49095154 C-339.98822064 382.69359107 -339.99407007 377.89624729 -339.99755859 373.09887695 C-340.00302432 366.98647931 -340.02701617 360.87430655 -340.05553055 354.7619791 C-340.07426854 350.0338428 -340.07936856 345.30575931 -340.08089447 340.57758904 C-340.08389914 338.32640295 -340.09185265 336.0752173 -340.10507965 333.82406807 C-340.27274623 303.08028517 -340.27274623 303.08028517 -333.00732422 289.72363281 C-332.65589355 289.05533447 -332.30446289 288.38703613 -331.94238281 287.69848633 C-324.73352414 274.40319379 -312.49675238 265.4306416 -298.06201172 261.03613281 C-283.27428932 257.0619547 -268.83596093 255.85211552 -253.60498047 255.74707031 C-251.82048306 255.72815405 -250.03599308 255.70852551 -248.25151062 255.68824768 C-243.44132388 255.63631534 -238.63110984 255.5967243 -233.82078552 255.56003952 C-230.81013741 255.53605564 -227.7995451 255.50842541 -224.78894043 255.47952271 C-178.11269669 255.0320864 -131.43514216 255.055994 -84.75732422 255.16113281 C-84.75954483 254.0174675 -84.76176544 252.87380219 -84.76405334 251.69548035 C-84.94710649 154.19300079 -84.94710649 154.19300079 -84.54879761 107.62710571 C-84.51949046 104.14269991 -84.49899282 100.65842583 -84.48660278 97.17391968 C-84.30762101 51.11649939 -84.30762101 51.11649939 -73.75732422 32.16113281 C-73.09732422 32.16113281 -72.43732422 32.16113281 -71.75732422 32.16113281 C-71.71607422 31.48050781 -71.67482422 30.79988281 -71.63232422 30.09863281 C-68.94972261 21.09275597 -59.45573015 15.68935607 -51.75732422 11.16113281 C-35.80717695 2.68937422 -17.87906503 0.02371229 0 0 Z " fill="#FBFBFC" transform="translate(420.75732421875,214.8388671875)"/>
</svg>
